<svg xmlns="http://www.w3.org/2000/svg" viewBox="0 0 64 64"><linearGradient id="Ptg_HqVy7nKfdRZa1f6Uwa" x1="15" x2="15" y1="9.125" y2="12.625" gradientUnits="userSpaceOnUse"><stop offset="0" stop-color="#6dc7ff"/><stop offset="1" stop-color="#e6abff"/></linearGradient><path fill="url(#Ptg_HqVy7nKfdRZa1f6Uwa)" d="M15,12L15,12c-0.552,0-1-0.448-1-1v0c0-0.552,0.448-1,1-1h0c0.552,0,1,0.448,1,1v0	C16,11.552,15.552,12,15,12z"/><linearGradient id="Ptg_HqVy7nKfdRZa1f6Uwb" x1="19" x2="19" y1="9.125" y2="12.625" gradientUnits="userSpaceOnUse"><stop offset="0" stop-color="#6dc7ff"/><stop offset="1" stop-color="#e6abff"/></linearGradient><path fill="url(#Ptg_HqVy7nKfdRZa1f6Uwb)" d="M19,12L19,12c-0.552,0-1-0.448-1-1v0c0-0.552,0.448-1,1-1h0c0.552,0,1,0.448,1,1v0	C20,11.552,19.552,12,19,12z"/><linearGradient id="Ptg_HqVy7nKfdRZa1f6Uwc" x1="23" x2="23" y1="9.125" y2="12.625" gradientUnits="userSpaceOnUse"><stop offset="0" stop-color="#6dc7ff"/><stop offset="1" stop-color="#e6abff"/></linearGradient><path fill="url(#Ptg_HqVy7nKfdRZa1f6Uwc)" d="M23,12L23,12c-0.552,0-1-0.448-1-1v0c0-0.552,0.448-1,1-1h0c0.552,0,1,0.448,1,1v0	C24,11.552,23.552,12,23,12z"/><linearGradient id="Ptg_HqVy7nKfdRZa1f6Uwd" x1="32" x2="32" y1="4.191" y2="57.21" gradientUnits="userSpaceOnUse"><stop offset="0" stop-color="#1a6dff"/><stop offset="1" stop-color="#c822ff"/></linearGradient><path fill="url(#Ptg_HqVy7nKfdRZa1f6Uwd)" d="M51,6H13c-2.757,0-5,2.243-5,5v44c0,1.654,1.346,3,3,3h42c1.654,0,3-1.346,3-3V11 C56,8.243,53.757,6,51,6z M54,55c0,0.552-0.448,1-1,1H11c-0.552,0-1-0.448-1-1v-1.185C10.314,53.928,10.648,54,11,54h42 c0.352,0,0.686-0.072,1-0.184V55z M54,51c0,0.552-0.448,1-1,1H11c-0.552,0-1-0.448-1-1V16h44V51z M54,14H10v-3c0-1.654,1.346-3,3-3 h38c1.654,0,3,1.346,3,3V14z"/><linearGradient id="Ptg_HqVy7nKfdRZa1f6Uwe" x1="32" x2="32" y1="4.191" y2="57.21" gradientUnits="userSpaceOnUse"><stop offset="0" stop-color="#1a6dff"/><stop offset="1" stop-color="#c822ff"/></linearGradient><path fill="url(#Ptg_HqVy7nKfdRZa1f6Uwe)" d="M22,48c1.302,0,2.402-0.839,2.816-2h14.369c0.414,1.161,1.514,2,2.816,2s2.402-0.839,2.816-2 H52v-2h-7.184c-0.414-1.161-1.514-2-2.816-2s-2.402,0.839-2.816,2H24.816c-0.414-1.161-1.514-2-2.816-2s-2.402,0.839-2.816,2H12v2 h7.184C19.598,47.161,20.698,48,22,48z M42,44c0.551,0,1,0.449,1,1s-0.449,1-1,1s-1-0.449-1-1S41.449,44,42,44z M22,44 c0.551,0,1,0.449,1,1s-0.449,1-1,1s-1-0.449-1-1S21.449,44,22,44z"/><linearGradient id="Ptg_HqVy7nKfdRZa1f6Uwf" x1="22" x2="22" y1="21.298" y2="36.936" gradientUnits="userSpaceOnUse"><stop offset="0" stop-color="#6dc7ff"/><stop offset="1" stop-color="#e6abff"/></linearGradient><path fill="url(#Ptg_HqVy7nKfdRZa1f6Uwf)" d="M20,27h7v-2h-4v-2h-2v2h-1c-1.657,0-3,1.343-3,3s1.343,3,3,3h4c0.55,0,1,0.45,1,1s-0.45,1-1,1	h-7v2h4v2h2v-2h1c1.657,0,3-1.343,3-3c0-0.446-0.098-0.869-0.273-1.25C26.252,29.718,25.208,29,24,29h-4c-0.55,0-1-0.45-1-1	S19.45,27,20,27z"/><linearGradient id="Ptg_HqVy7nKfdRZa1f6Uwg" x1="42" x2="42" y1="17.915" y2="37.384" gradientUnits="userSpaceOnUse"><stop offset="0" stop-color="#6dc7ff"/><stop offset="1" stop-color="#e6abff"/></linearGradient><path fill="url(#Ptg_HqVy7nKfdRZa1f6Uwg)" d="M39,24h9v-2h-5v-2h-2v2h-2c-1.657,0-3,1.343-3,3v2c0,1.657,1.343,3,3,3h6c0.55,0,1,0.45,1,1v2	c0,0.55-0.45,1-1,1h-9v2h5v2h2v-2h2c1.657,0,3-1.343,3-3v-2c0-0.446-0.098-0.869-0.273-1.25C47.252,28.718,46.208,28,45,28h-6	c-0.55,0-1-0.45-1-1v-2C38,24.45,38.45,24,39,24z"/></svg>