<svg xmlns="http://www.w3.org/2000/svg" viewBox="0 0 40 40"><path fill="#e1ebf2" d="M3.5 1.5H31.5V35.5H3.5z"/><path fill="#788b9c" d="M31,2v33H4V2H31 M32,1H3v35h29V1L32,1z"/><path fill="#fff" d="M6.5 4.5H34.5V38.5H6.5z"/><path fill="#788b9c" d="M34,5v33H7V5H34 M35,4H6v35h29V4L35,4z"/><path fill="none" stroke="#c5d4de" stroke-miterlimit="10" d="M24 11.5L30 11.5M24 15.5L30 15.5M24 19.5L30 19.5M12 23.5L26 23.5M12 27.5L26 27.5M12 31.5L26 31.5"/><path fill="#ffeea3" d="M17 8.5A2.5 2.5 0 1 0 17 13.5A2.5 2.5 0 1 0 17 8.5Z"/><path fill="#ba9b48" d="M17,9c1.103,0,2,0.897,2,2s-0.897,2-2,2s-2-0.897-2-2S15.897,9,17,9 M17,8c-1.657,0-3,1.343-3,3 s1.343,3,3,3s3-1.343,3-3S18.657,8,17,8L17,8z"/><path fill="#c2e8ff" d="M12.528,19.5c0.25-2.247,2.16-4,4.472-4c2.312,0,4.223,1.753,4.472,4H12.528z"/><path fill="#7496c4" d="M17,16c1.86,0,3.428,1.277,3.873,3h-7.747C13.572,17.277,15.14,16,17,16 M17,15 c-2.761,0-5,2.239-5,5h10C22,17.239,19.761,15,17,15L17,15z"/><g><path fill="#dcd5f2" d="M27.5 24.5H39.5V39.5H27.5z"/><path fill="#8b75a1" d="M39,25v14H28V25H39 M40,24H27v16h13V24L40,24z"/></g><g><path fill="none" stroke="#f9f7ff" stroke-miterlimit="10" d="M31.5 39L31.5 25"/></g><path fill="none" stroke="#8b75a1" stroke-miterlimit="10" d="M27 34.5L40 34.5M27 29.5L40 29.5"/></svg>