<svg xmlns="http://www.w3.org/2000/svg" viewBox="0 0 64 64"><linearGradient id="7zxwvb1SE5_dinM70F_hra" x1="11" x2="11" y1="30.333" y2="51.336" gradientUnits="userSpaceOnUse"><stop offset="0" stop-color="#6dc7ff"/><stop offset="1" stop-color="#e6abff"/></linearGradient><rect width="6" height="19" x="8" y="31" fill="url(#7zxwvb1SE5_dinM70F_hra)"/><linearGradient id="7zxwvb1SE5_dinM70F_hrb" x1="42" x2="42" y1="8.447" y2="58.361" gradientUnits="userSpaceOnUse"><stop offset="0" stop-color="#1a6dff"/><stop offset="1" stop-color="#c822ff"/></linearGradient><path fill="url(#7zxwvb1SE5_dinM70F_hrb)" d="M42,28c3.309,0,6-2.691,6-6s-2.691-6-6-6s-6,2.691-6,6S38.691,28,42,28z M42,18 c2.206,0,4,1.794,4,4s-1.794,4-4,4s-4-1.794-4-4S39.794,18,42,18z"/><linearGradient id="7zxwvb1SE5_dinM70F_hrc" x1="32" x2="32" y1="8.447" y2="58.361" gradientUnits="userSpaceOnUse"><stop offset="0" stop-color="#1a6dff"/><stop offset="1" stop-color="#c822ff"/></linearGradient><path fill="url(#7zxwvb1SE5_dinM70F_hrc)" d="M56.427,38.815c-0.937-0.693-2.188-0.895-3.435-0.55l-15.289,4.227 C37.891,42.028,38,41.523,38,40.991C38,38.79,36.206,37,34,37h-9.377c-0.666-1-2.362-4-4.623-4h-4v-1c0-1.654-1.346-3-3-3H9 c-1.654,0-3,1.346-3,3v17c0,1.654,1.346,3,3,3h4c1.654,0,3-1.345,3-3v-0.752l12.139,8.202C29.663,57.482,31.437,58,33.214,58 c1.642,0,3.287-0.442,4.742-1.331l18.173-11.101C57.283,44.865,58,43.587,58,42.235v-0.313C58,40.691,57.427,39.559,56.427,38.815z M14,49c0,0.552-0.449,1-1,1h-1v-4h-2v4H9c-0.551,0-1-0.448-1-1V32c0-0.552,0.449-1,1-1h4c0.551,0,1,0.449,1,1V49z M56,42.235 c0,0.66-0.35,1.283-0.913,1.627L36.914,54.962c-2.365,1.443-5.369,1.378-7.654-0.169L16,45.835V35h4 c1.059,0,2.469,2.034,3.088,3.409L23.354,39H34c1.103,0,2,0.893,2,1.99c0,1.108-0.897,2.01-2,2.01H24v2h10h2l17.524-4.807 c0.641-0.178,1.28-0.093,1.71,0.229C55.721,40.783,56,41.33,56,41.922V42.235z"/><linearGradient id="7zxwvb1SE5_dinM70F_hrd" x1="42" x2="42" y1="8.447" y2="58.361" gradientUnits="userSpaceOnUse"><stop offset="0" stop-color="#1a6dff"/><stop offset="1" stop-color="#c822ff"/></linearGradient><path fill="url(#7zxwvb1SE5_dinM70F_hrd)" d="M32,26h0.344l-0.243,0.243c-0.756,0.755-1.172,1.759-1.172,2.828 c0,1.068,0.416,2.072,1.172,2.828s1.76,1.172,2.828,1.172c1.069,0,2.073-0.416,2.828-1.172L38,31.656V32c0,2.206,1.794,4,4,4 s4-1.794,4-4v-0.344l0.243,0.243c0.755,0.756,1.759,1.172,2.828,1.172c1.068,0,2.072-0.416,2.828-1.172s1.172-1.76,1.172-2.828 c0-1.069-0.416-2.073-1.172-2.828L51.656,26H52c2.206,0,4-1.794,4-4s-1.794-4-4-4h-0.344l0.243-0.243 c0.756-0.755,1.172-1.759,1.172-2.828c0-1.068-0.416-2.072-1.172-2.828c-1.513-1.513-4.147-1.511-5.656,0L46,12.344V12 c0-2.206-1.794-4-4-4s-4,1.794-4,4v0.344l-0.243-0.243c-1.509-1.511-4.145-1.513-5.656,0c-0.756,0.756-1.172,1.76-1.172,2.828 c0,1.069,0.416,2.073,1.172,2.828L32.344,18H32c-2.206,0-4,1.794-4,4S29.794,26,32,26z M36.343,30.485 c-0.756,0.756-2.072,0.756-2.828,0c-0.378-0.378-0.586-0.88-0.586-1.414s0.208-1.036,0.586-1.414l0.151-0.151 c0.742,1.126,1.702,2.086,2.828,2.828L36.343,30.485z M50.485,30.485c-0.756,0.756-2.072,0.756-2.828,0l-0.151-0.151 c1.126-0.742,2.086-1.702,2.828-2.828l0.151,0.151c0.378,0.378,0.586,0.88,0.586,1.414S50.863,30.107,50.485,30.485z M47.657,13.515c0.756-0.756,2.072-0.756,2.828,0c0.378,0.378,0.586,0.88,0.586,1.414s-0.208,1.036-0.586,1.414l-0.151,0.151 c-0.742-1.126-1.702-2.086-2.828-2.828L47.657,13.515z M33.515,13.515c0.756-0.756,2.072-0.756,2.828,0l0.151,0.151 c-1.126,0.742-2.086,1.702-2.828,2.828l-0.151-0.151c-0.378-0.378-0.586-0.88-0.586-1.414S33.137,13.893,33.515,13.515z M32,20 h2.23l0.235-0.667c0.809-2.284,2.583-4.059,4.867-4.867L40,14.23V12c0-1.103,0.897-2,2-2s2,0.897,2,2v2.23l0.667,0.235 c2.284,0.809,4.059,2.583,4.867,4.867L49.77,20H52c1.103,0,2,0.897,2,2s-0.897,2-2,2h-2.23l-0.235,0.667 c-0.809,2.284-2.583,4.059-4.867,4.867L44,29.77V32c0,1.103-0.897,2-2,2s-2-0.897-2-2v-2.23l-0.667-0.235 c-2.284-0.809-4.059-2.583-4.867-4.867L34.23,24H32c-1.103,0-2-0.897-2-2S30.897,20,32,20z"/><linearGradient id="7zxwvb1SE5_dinM70F_hre" x1="18.979" x2="18.979" y1="5.75" y2="22.757" gradientUnits="userSpaceOnUse"><stop offset="0" stop-color="#6dc7ff"/><stop offset="1" stop-color="#e6abff"/></linearGradient><path fill="url(#7zxwvb1SE5_dinM70F_hre)" d="M25.479,12h-0.21c-0.54,0-0.81-0.65-0.43-1.03l0.15-0.15c0.59-0.59,0.59-1.54,0-2.12	l-0.71-0.71c-0.58-0.59-1.53-0.59-2.12,0l-0.15,0.15c-0.38,0.38-1.03,0.11-1.03-0.43V7.5c0-0.83-0.67-1.5-1.5-1.5h-1	c-0.83,0-1.5,0.67-1.5,1.5v0.21c0,0.54-0.65,0.81-1.03,0.43l-0.15-0.15c-0.59-0.59-1.54-0.59-2.12,0l-0.71,0.71	c-0.59,0.58-0.59,1.53,0,2.12l0.15,0.15c0.38,0.38,0.11,1.03-0.43,1.03h-0.21c-0.83,0-1.5,0.67-1.5,1.5v1c0,0.83,0.67,1.5,1.5,1.5	h0.21c0.54,0,0.81,0.65,0.43,1.03l-0.15,0.15c-0.59,0.59-0.59,1.54,0,2.12l0.71,0.71c0.58,0.59,1.53,0.59,2.12,0l0.15-0.15	c0.38-0.38,1.03-0.11,1.03,0.43v0.21c0,0.83,0.67,1.5,1.5,1.5h1c0.83,0,1.5-0.67,1.5-1.5v-0.21c0-0.54,0.65-0.81,1.03-0.43	l0.15,0.15c0.59,0.59,1.54,0.59,2.12,0l0.71-0.71c0.59-0.58,0.59-1.53,0-2.12l-0.15-0.15c-0.38-0.38-0.11-1.03,0.43-1.03h0.21	c0.83,0,1.5-0.67,1.5-1.5v-1C26.979,12.67,26.309,12,25.479,12z M18.979,17c-1.66,0-3-1.34-3-3c0-1.66,1.34-3,3-3c1.66,0,3,1.34,3,3	C21.979,15.66,20.639,17,18.979,17z"/></svg>