<svg width="48" height="48" viewBox="0 0 48 48" fill="none" xmlns="http://www.w3.org/2000/svg">
<path fill-rule="evenodd" clip-rule="evenodd" d="M24 48C37.2548 48 48 37.2548 48 24C48 10.7452 37.2548 0 24 0C10.7452 0 0 10.7452 0 24C0 37.2548 10.7452 48 24 48ZM24 14C24.5523 14 25 14.4477 25 15V23H33C33.5523 23 34 23.4477 34 24C34 24.5523 33.5523 25 33 25H25V33C25 33.5523 24.5523 34 24 34C23.4477 34 23 33.5523 23 33V25H15C14.4477 25 14 24.5523 14 24C14 23.4477 14.4477 23 15 23H23V15C23 14.4477 23.4477 14 24 14Z" fill="#3D5C99"/>
</svg>
