<svg width="24" height="24" viewBox="0 0 24 24" fill="none" xmlns="http://www.w3.org/2000/svg">
<path fill-rule="evenodd" clip-rule="evenodd" d="M10.5 5C10.5 4.72386 10.7239 4.5 11 4.5H19C19.2761 4.5 19.5 4.72386 19.5 5V13C19.5 13.2761 19.2761 13.5 19 13.5H11C10.7239 13.5 10.5 13.2761 10.5 13V5ZM10.5 3C9.67157 3 9 3.67157 9 4.5V13.5C9 14.3284 9.67157 15 10.5 15H19.5C20.3284 15 21 14.3284 21 13.5V4.5C21 3.67157 20.3284 3 19.5 3H10.5ZM13.5 21C14.3284 21 15 20.3284 15 19.5V16H13.5V19C13.5 19.2761 13.2761 19.5 13 19.5H5C4.72386 19.5 4.5 19.2761 4.5 19L4.5 11C4.5 10.7239 4.72386 10.5 5 10.5L8 10.5V9L4.5 9C3.67157 9 3 9.67157 3 10.5V19.5C3 20.3284 3.67157 21 4.5 21L13.5 21Z" fill="#D7D7D9"/>
</svg>
