<svg width="56" height="56" viewBox="0 0 17 16" fill="none"
     xmlns="http://www.w3.org/2000/svg">
    <path fill-rule="evenodd" clip-rule="evenodd"
          d="M7.63359 5.00078C7.63359 4.28281 8.21562 3.70078 8.93359
          3.70078C9.65156 3.70078 10.2336 4.28281 10.2336
          5.00078V7.00077H7.63359V5.00078ZM6.23359 7.00077V5.00078C6.23359
          3.50961 7.44242 2.30078 8.93359 2.30078C10.4248 2.30078 11.6336
          3.50961 11.6336 5.00078V7.00077H11.9336C12.4859 7.00077 12.9336
          7.44848 12.9336 8.00077V12.0008C12.9336 12.5531 12.4859 13.0008
          11.9336 13.0008H5.93359C5.38131 13.0008 4.93359 12.5531 4.93359
          12.0008V8.00077C4.93359 7.44848 5.38131 7.00077 5.93359
           7.00077H6.23359Z" fill="url(#paint0_linear_2392_26788)"/>
    <defs>
        <linearGradient id="paint0_linear_2392_26788" x1="4" y1="17"
                        x2="17" y2="17"
                        gradientUnits="userSpaceOnUse">
            <stop stop-color="#00994D"/>
            <stop offset="0.5" stop-color="#008C81"/>
            <stop offset="1" stop-color="#008099"/>
        </linearGradient>
    </defs>
</svg>
