<svg width="24" height="24" viewBox="0 0 24 24" fill="none" xmlns="http://www.w3.org/2000/svg">
<mask id="path-1-outside-1_641_55161" maskUnits="userSpaceOnUse" x="1" y="5" width="22" height="14" fill="black">
<rect fill="white" x="1" y="5" width="22" height="14"/>
<path fill-rule="evenodd" clip-rule="evenodd" d="M12 10C13.1046 10 14 9.10457 14 8C14 6.89543 13.1046 6 12 6C10.8954 6 10 6.89543 10 8C10 9.10457 10.8954 10 12 10ZM4 18C5.10457 18 6 17.1046 6 16C6 14.8954 5.10457 14 4 14C2.89543 14 2 14.8954 2 16C2 17.1046 2.89543 18 4 18ZM14 16C14 17.1046 13.1046 18 12 18C10.8954 18 10 17.1046 10 16C10 14.8954 10.8954 14 12 14C13.1046 14 14 14.8954 14 16ZM20 18C21.1046 18 22 17.1046 22 16C22 14.8954 21.1046 14 20 14C18.8954 14 18 14.8954 18 16C18 17.1046 18.8954 18 20 18Z"/>
</mask>
<path fill-rule="evenodd" clip-rule="evenodd" d="M12 10C13.1046 10 14 9.10457 14 8C14 6.89543 13.1046 6 12 6C10.8954 6 10 6.89543 10 8C10 9.10457 10.8954 10 12 10ZM4 18C5.10457 18 6 17.1046 6 16C6 14.8954 5.10457 14 4 14C2.89543 14 2 14.8954 2 16C2 17.1046 2.89543 18 4 18ZM14 16C14 17.1046 13.1046 18 12 18C10.8954 18 10 17.1046 10 16C10 14.8954 10.8954 14 12 14C13.1046 14 14 14.8954 14 16ZM20 18C21.1046 18 22 17.1046 22 16C22 14.8954 21.1046 14 20 14C18.8954 14 18 14.8954 18 16C18 17.1046 18.8954 18 20 18Z" fill="currentColor"/>
<path d="M13.8 8C13.8 8.99411 12.9941 9.8 12 9.8V10.2C13.215 10.2 14.2 9.21503 14.2 8H13.8ZM12 6.2C12.9941 6.2 13.8 7.00589 13.8 8H14.2C14.2 6.78497 13.215 5.8 12 5.8V6.2ZM10.2 8C10.2 7.00589 11.0059 6.2 12 6.2V5.8C10.785 5.8 9.8 6.78497 9.8 8H10.2ZM12 9.8C11.0059 9.8 10.2 8.99411 10.2 8H9.8C9.8 9.21503 10.785 10.2 12 10.2V9.8ZM5.8 16C5.8 16.9941 4.99411 17.8 4 17.8V18.2C5.21503 18.2 6.2 17.215 6.2 16H5.8ZM4 14.2C4.99411 14.2 5.8 15.0059 5.8 16H6.2C6.2 14.785 5.21503 13.8 4 13.8V14.2ZM2.2 16C2.2 15.0059 3.00589 14.2 4 14.2V13.8C2.78497 13.8 1.8 14.785 1.8 16H2.2ZM4 17.8C3.00589 17.8 2.2 16.9941 2.2 16H1.8C1.8 17.215 2.78497 18.2 4 18.2V17.8ZM12 18.2C13.215 18.2 14.2 17.215 14.2 16H13.8C13.8 16.9941 12.9941 17.8 12 17.8V18.2ZM9.8 16C9.8 17.215 10.785 18.2 12 18.2V17.8C11.0059 17.8 10.2 16.9941 10.2 16H9.8ZM12 13.8C10.785 13.8 9.8 14.785 9.8 16H10.2C10.2 15.0059 11.0059 14.2 12 14.2V13.8ZM14.2 16C14.2 14.785 13.215 13.8 12 13.8V14.2C12.9941 14.2 13.8 15.0059 13.8 16H14.2ZM21.8 16C21.8 16.9941 20.9941 17.8 20 17.8V18.2C21.215 18.2 22.2 17.215 22.2 16H21.8ZM20 14.2C20.9941 14.2 21.8 15.0059 21.8 16H22.2C22.2 14.785 21.215 13.8 20 13.8V14.2ZM18.2 16C18.2 15.0059 19.0059 14.2 20 14.2V13.8C18.785 13.8 17.8 14.785 17.8 16H18.2ZM20 17.8C19.0059 17.8 18.2 16.9941 18.2 16H17.8C17.8 17.215 18.785 18.2 20 18.2V17.8Z" fill="currentColor" mask="url(#path-1-outside-1_641_55161)"/>
</svg>
