<svg width="48" height="48" viewBox="0 0 48 48" fill="none" xmlns="http://www.w3.org/2000/svg">
<path fill-rule="evenodd" clip-rule="evenodd" d="M24 48C37.2548 48 48 37.2548 48 24C48 10.7452 37.2548 0 24 0C10.7452 0 0 10.7452 0 24C0 37.2548 10.7452 48 24 48ZM17.5 20C18.8807 20 20 18.8807 20 17.5C20 16.1193 18.8807 15 17.5 15C16.1192 15 15 16.1193 15 17.5C15 18.8807 16.1192 20 17.5 20ZM16.6948 35.2669C18.4907 33.2604 21.0973 32 23.9997 32C26.902 32 29.5086 33.2604 31.3045 35.2669C31.6728 35.6784 32.305 35.7134 32.7166 35.3451C33.1281 34.9768 33.1631 34.3446 32.7948 33.9331C30.6355 31.5206 27.4945 30 23.9997 30C20.5048 30 17.3638 31.5206 15.2045 33.9331C14.8362 34.3446 14.8712 34.9768 15.2828 35.3451C15.6943 35.7134 16.3265 35.6784 16.6948 35.2669ZM33 17.5C33 18.8807 31.8807 20 30.5 20C29.1192 20 28 18.8807 28 17.5C28 16.1193 29.1192 15 30.5 15C31.8807 15 33 16.1193 33 17.5Z" fill="#3D5C99"/>
</svg>
