<svg width="24" height="24" viewBox="0 0 24 24" fill="none" xmlns="http://www.w3.org/2000/svg">
<path fill-rule="evenodd" clip-rule="evenodd" d="M8 5.25H7.25V6.75H8H16H16.75V5.25H16H8ZM7.25 11.25H8H21H21.75V12.75H21H8H7.25V11.25ZM7.25 17.25H8H13H13.75V18.75H13H8H7.25V17.25Z" fill="currentColor"/>
<mask id="path-2-outside-1_641_55163" maskUnits="userSpaceOnUse" x="2" y="4" width="4" height="16" fill="black">
<rect fill="white" x="2" y="4" width="4" height="16"/>
<path fill-rule="evenodd" clip-rule="evenodd" d="M5 6C5 6.55228 4.55228 7 4 7C3.44772 7 3 6.55228 3 6C3 5.44772 3.44772 5 4 5C4.55228 5 5 5.44772 5 6ZM5 12C5 12.5523 4.55228 13 4 13C3.44772 13 3 12.5523 3 12C3 11.4477 3.44772 11 4 11C4.55228 11 5 11.4477 5 12ZM4 19C4.55228 19 5 18.5523 5 18C5 17.4477 4.55228 17 4 17C3.44772 17 3 17.4477 3 18C3 18.5523 3.44772 19 4 19Z"/>
</mask>
<path fill-rule="evenodd" clip-rule="evenodd" d="M5 6C5 6.55228 4.55228 7 4 7C3.44772 7 3 6.55228 3 6C3 5.44772 3.44772 5 4 5C4.55228 5 5 5.44772 5 6ZM5 12C5 12.5523 4.55228 13 4 13C3.44772 13 3 12.5523 3 12C3 11.4477 3.44772 11 4 11C4.55228 11 5 11.4477 5 12ZM4 19C4.55228 19 5 18.5523 5 18C5 17.4477 4.55228 17 4 17C3.44772 17 3 17.4477 3 18C3 18.5523 3.44772 19 4 19Z" fill="currentColor"/>
<path d="M4 7.5C4.82843 7.5 5.5 6.82843 5.5 6H4.5C4.5 6.27614 4.27614 6.5 4 6.5V7.5ZM2.5 6C2.5 6.82843 3.17157 7.5 4 7.5V6.5C3.72386 6.5 3.5 6.27614 3.5 6H2.5ZM4 4.5C3.17157 4.5 2.5 5.17157 2.5 6H3.5C3.5 5.72386 3.72386 5.5 4 5.5V4.5ZM5.5 6C5.5 5.17157 4.82843 4.5 4 4.5V5.5C4.27614 5.5 4.5 5.72386 4.5 6H5.5ZM4 13.5C4.82843 13.5 5.5 12.8284 5.5 12H4.5C4.5 12.2761 4.27614 12.5 4 12.5V13.5ZM2.5 12C2.5 12.8284 3.17157 13.5 4 13.5V12.5C3.72386 12.5 3.5 12.2761 3.5 12H2.5ZM4 10.5C3.17157 10.5 2.5 11.1716 2.5 12H3.5C3.5 11.7239 3.72386 11.5 4 11.5V10.5ZM5.5 12C5.5 11.1716 4.82843 10.5 4 10.5V11.5C4.27614 11.5 4.5 11.7239 4.5 12H5.5ZM4.5 18C4.5 18.2761 4.27614 18.5 4 18.5V19.5C4.82843 19.5 5.5 18.8284 5.5 18H4.5ZM4 17.5C4.27614 17.5 4.5 17.7239 4.5 18H5.5C5.5 17.1716 4.82843 16.5 4 16.5V17.5ZM3.5 18C3.5 17.7239 3.72386 17.5 4 17.5V16.5C3.17157 16.5 2.5 17.1716 2.5 18H3.5ZM4 18.5C3.72386 18.5 3.5 18.2761 3.5 18H2.5C2.5 18.8284 3.17157 19.5 4 19.5V18.5Z" fill="currentColor" mask="url(#path-2-outside-1_641_55163)"/>
</svg>
