<svg xmlns="http://www.w3.org/2000/svg" width="48" height="48" viewBox="0 0 48 48" fill="none">
        <path d="M40 10V36C40 37.104 39.104 38 38 38H10C8.896 38 8 37.104 8 36V10C5.79 10 4 11.79 4 14V36C4 39.314 6.686 42 10 42H38C41.314 42 44 39.314 44 36V14C44 11.79 42.21 10 40 10Z" fill="#3888FF"/>
        <path opacity="0.35" d="M29.708 6C27.436 6 25.358 7.284 24.342 9.316L24 10L23.658 9.316C22.642 7.284 20.564 6 18.292 6H12C9.79 6 8 7.79 8 10V36C8 37.104 8.896 38 10 38H38C39.104 38 40 37.104 40 36V10C40 7.79 38.21 6 36 6H29.708Z" fill="#3888FF"/>
        <path d="M24 44C27.314 44 30 41.314 30 38H18C18 41.314 20.686 44 24 44Z" fill="#3888FF"/>
        <path d="M24.342 9.316L24 10L23.658 9.316C23.256 8.512 22.682 7.83 22 7.292V38H26V7.292C25.318 7.83 24.744 8.512 24.342 9.316Z" fill="#3888FF"/>
      </svg>