<svg xmlns="http://www.w3.org/2000/svg" width="48" height="48"
     viewBox="0 0 48 48" fill="none">
    <path opacity="0.35"
          d="M38 8H10C6.686 8 4 10.686 4 14V24C4 27.314 6.686 30 10 30H38C41.314 30 44 27.314 44 24V14C44 10.686 41.314 8 38 8Z"
          fill="#3888FF"/>
    <path d="M36 26C37.1046 26 38 25.1046 38 24C38 22.8954 37.1046 22 36 22C34.8954 22 34 22.8954 34 24C34 25.1046 34.8954 26 36 26Z"
          fill="#3888FF"/>
    <path d="M12 26C13.1046 26 14 25.1046 14 24C14 22.8954 13.1046 22 12 22C10.8954 22 10 22.8954 10 24C10 25.1046 10.8954 26 12 26Z"
          fill="#3888FF"/>
    <path d="M38 30H10C6.686 30 4 27.314 4 24V36C4 39.314 6.686 42 10 42H38C41.314 42 44 39.314 44 36V24C44 27.314 41.314 30 38 30Z"
          fill="#3888FF"/>
    <path d="M26 4C25.268 4 22.732 4 22 4C19.79 4 18 5.79 18 8H30C30 5.79 28.21 4 26 4Z"
          fill="#3888FF"/>
</svg>