<svg xmlns="http://www.w3.org/2000/svg" width="80" height="80"
           viewBox="0 0 80 80" fill="none">
        <path opacity="0.35"
              d="M9.75325 43.66L20.0366 47.69C21.1233 48.1167 21.9632 49.0067 22.3299 50.1133L26.6199 63.1733C27.5333 65.9567 30.9566 66.9533 33.2199 65.0933L40.6466 58.9967C41.5866 58.2233 42.9533 58.2633 43.8499 59.09L53.3533 67.8567C56.8033 71.04 62.4066 69.2167 63.3233 64.6133L73.2533 14.7433C73.8733 11.6267 70.7633 9.08333 67.8299 10.31L9.64991 34.6433C5.62325 36.3333 5.68658 42.0667 9.75325 43.66Z"
              fill="#3888FF"/>
        <path
            d="M38.1933 54.2367L61.4933 23.6933C62.5866 22.26 60.79 20.42 59.3333 21.4767L21.5566 48.8167C21.8833 49.2 22.17 49.6233 22.33 50.1133L26.62 63.1733C27.04 64.45 27.9966 65.33 29.12 65.75C32.13 66.6033 38.1933 54.2367 38.1933 54.2367Z"
            fill="#3888FF"/>
      </svg>