<svg
        style="width: 2rem; height: 2rem"
        width="24" height="24" viewBox="0 0 24 24"
        fill="none" xmlns="http://www.w3.org/2000/svg"
>
    <path
            fill-rule="evenodd"
            clip-rule="evenodd"
            d="M5.75 10.5C5.75 7.87665 7.87665 5.75 10.5 5.75C13.1234 5.75 15.25 7.87665 15.25 10.5C15.25 13.1234 13.1234 15.25 10.5 15.25C7.87665 15.25 5.75 13.1234 5.75 10.5ZM10.5 4.25C7.04822 4.25 4.25 7.04822 4.25 10.5C4.25 13.9518 7.04822 16.75 10.5 16.75C11.9556 16.75 13.2951 16.2524 14.3574 15.418L17.9697 19.0303C18.2626 19.3232 18.7374 19.3232 19.0303 19.0303C19.3232 18.7374 19.3232 18.2626 19.0303 17.9697L15.418 14.3573C16.2524 13.295 16.75 11.9556 16.75 10.5C16.75 7.04822 13.9518 4.25 10.5 4.25Z"
            fill="#DADEE6"
    />
</svg>