<?xml version="1.0" encoding="utf-8"?>
<svg xmlns="http://www.w3.org/2000/svg" viewBox="0 0 26 26" fill="#cedbd4"><path d="M 13 25 C 19.601563 25 25 19.601563 25 13 C 25 6.398438 19.601563 1 13 1 C 6.398438 1 1 6.398438 1 13 C 1 19.601563 6.398438 25 13 25 Z M 7.398438 11.800781 C 9.398438 8.898438 12.398438 6.199219 12.601563 6.101563 C 12.699219 6.101563 12.800781 6 13 6 C 13.199219 6 13.300781 6.101563 13.5 6.199219 C 13.601563 6.300781 16.699219 9 18.699219 11.898438 C 18.898438 12.101563 18.898438 12.398438 18.699219 12.699219 C 18.5 12.800781 18.300781 13 18 13 L 15.398438 13 C 15.398438 13 15.101563 19.101563 14.898438 19.398438 C 14.601563 19.699219 13.800781 20 13 20 C 12.300781 20 11.5 19.699219 11.199219 19.398438 C 11 19.101563 10.601563 13 10.601563 13 L 8 13 C 7.699219 13 7.5 12.898438 7.398438 12.601563 C 7.199219 12.398438 7.199219 12.101563 7.398438 11.800781 Z" fill="#cedbd4"/></svg>
