<?xml version="1.0" encoding="utf-8"?>
<svg xmlns="http://www.w3.org/2000/svg" viewBox="0 0 50 50" fill="#8457ff"><path d="M 24.933594 3 C 22.28125 3.046875 20.433594 4.199219 19.667969 5.945313 C 18.960938 7.554688 19.113281 9.460938 19.566406 11.421875 C 19.308594 11.8125 19.125 12.289063 19.203125 12.917969 C 19.289063 13.640625 19.488281 14.199219 19.816406 14.621094 C 19.945313 14.78125 20.132813 14.777344 20.289063 14.886719 C 20.40625 15.4375 20.542969 15.992188 20.769531 16.445313 C 20.917969 16.738281 21.074219 17.003906 21.25 17.234375 C 21.285156 17.28125 21.355469 17.320313 21.390625 17.367188 C 21.394531 17.910156 21.398438 18.40625 21.359375 18.96875 C 21.226563 19.261719 20.929688 19.546875 20.28125 19.875 C 19.765625 20.140625 19.042969 20.457031 18.335938 20.792969 C 17.46875 19.988281 16.480469 19.449219 15.652344 19.082031 C 15.132813 18.851563 14.683594 18.648438 14.386719 18.453125 C 14.128906 18.289063 14.050781 18.171875 13.996094 18.0625 C 13.976563 17.6875 13.988281 17.3125 14 16.917969 C 14.019531 16.894531 14.054688 16.875 14.074219 16.855469 C 14.230469 16.660156 14.375 16.441406 14.515625 16.199219 C 14.714844 15.839844 14.839844 15.378906 14.953125 14.925781 C 15.078125 14.832031 15.238281 14.835938 15.339844 14.707031 C 15.636719 14.332031 15.804688 13.84375 15.878906 13.234375 C 15.945313 12.703125 15.796875 12.285156 15.578125 11.933594 C 15.792969 11.183594 16.066406 10.246094 15.972656 9.09375 C 15.921875 8.394531 15.746094 7.660156 15.28125 7.019531 C 14.863281 6.4375 14.160156 6.023438 13.335938 5.851563 C 12.703125 5.269531 11.867188 5 10.957031 5 C 10.949219 5 10.945313 5 10.9375 5 C 8.75 5.039063 7.160156 6.019531 6.507813 7.5 C 5.925781 8.832031 6.050781 10.375 6.40625 11.953125 C 6.195313 12.296875 6.058594 12.710938 6.117188 13.234375 C 6.191406 13.84375 6.363281 14.328125 6.65625 14.707031 C 6.757813 14.835938 6.917969 14.832031 7.046875 14.925781 C 7.160156 15.378906 7.28125 15.835938 7.484375 16.195313 C 7.625 16.441406 7.773438 16.660156 7.929688 16.851563 C 7.945313 16.875 7.980469 16.894531 8 16.917969 C 8.011719 17.308594 8.023438 17.679688 8.003906 18.050781 C 7.9375 18.175781 7.753906 18.390625 7.273438 18.652344 C 6.757813 18.9375 6.035156 19.230469 5.28125 19.601563 C 4.53125 19.972656 3.742188 20.425781 3.097656 21.128906 C 2.453125 21.835938 2 22.828125 2 24 L 4 24 C 4 23.292969 4.207031 22.882813 4.574219 22.480469 C 4.941406 22.078125 5.511719 21.722656 6.171875 21.394531 C 6.832031 21.066406 7.5625 20.777344 8.238281 20.40625 C 8.914063 20.035156 9.617188 19.558594 9.9375 18.699219 C 9.96875 18.617188 9.988281 18.53125 9.996094 18.441406 C 10.070313 17.632813 10 17.082031 10 16.5 C 10 16.160156 9.828125 15.84375 9.542969 15.660156 C 9.546875 15.664063 9.519531 15.644531 9.476563 15.59375 C 9.410156 15.507813 9.316406 15.367188 9.226563 15.210938 C 9.046875 14.894531 8.898438 14.488281 8.875 14.246094 C 8.832031 13.863281 8.574219 13.539063 8.214844 13.410156 C 8.199219 13.386719 8.144531 13.3125 8.105469 12.996094 C 8.101563 12.957031 8.105469 12.96875 8.109375 12.957031 C 8.394531 12.707031 8.511719 12.320313 8.417969 11.957031 C 8.019531 10.425781 7.996094 9.085938 8.34375 8.300781 C 8.683594 7.519531 9.277344 7.035156 10.96875 7 C 11.757813 7.007813 12.105469 7.257813 12.105469 7.257813 C 12.257813 7.527344 12.527344 7.707031 12.832031 7.75 C 13.320313 7.820313 13.5 7.964844 13.664063 8.191406 C 13.828125 8.417969 13.945313 8.785156 13.980469 9.25 C 14.050781 10.171875 13.773438 11.375 13.597656 11.894531 C 13.472656 12.273438 13.585938 12.695313 13.886719 12.957031 C 13.890625 12.972656 13.898438 12.960938 13.894531 13 C 13.855469 13.3125 13.796875 13.390625 13.78125 13.414063 C 13.421875 13.542969 13.167969 13.867188 13.125 14.25 C 13.097656 14.488281 12.953125 14.898438 12.773438 15.214844 C 12.683594 15.371094 12.589844 15.507813 12.519531 15.59375 C 12.453125 15.675781 12.363281 15.707031 12.535156 15.613281 C 12.207031 15.789063 12 16.128906 12 16.5 C 12 17.082031 11.929688 17.632813 12.003906 18.441406 C 12.011719 18.53125 12.03125 18.617188 12.0625 18.703125 C 12.308594 19.359375 12.804688 19.8125 13.296875 20.136719 C 13.792969 20.457031 14.324219 20.679688 14.839844 20.910156 C 15.875 21.367188 16.828125 21.832031 17.390625 22.570313 C 17.6875 22.964844 18.226563 23.078125 18.660156 22.84375 C 19.453125 22.417969 20.351563 22.085938 21.191406 21.65625 C 22.03125 21.230469 22.902344 20.652344 23.285156 19.621094 C 23.316406 19.535156 23.335938 19.449219 23.34375 19.359375 C 23.429688 18.421875 23.398438 17.757813 23.398438 16.984375 C 23.398438 16.613281 23.191406 16.273438 22.863281 16.097656 C 23.035156 16.191406 22.933594 16.152344 22.855469 16.042969 C 22.773438 15.933594 22.664063 15.753906 22.5625 15.546875 C 22.355469 15.140625 22.179688 14.605469 22.136719 14.21875 C 22.089844 13.804688 21.789063 13.460938 21.386719 13.359375 C 21.351563 13.3125 21.242188 13.136719 21.1875 12.675781 C 21.171875 12.5625 21.195313 12.503906 21.210938 12.472656 C 21.535156 12.230469 21.679688 11.816406 21.578125 11.421875 C 21.082031 9.507813 21.035156 7.804688 21.5 6.75 C 21.960938 5.699219 22.804688 5.042969 24.957031 5 C 25.980469 5.003906 26.503906 5.320313 26.566406 5.433594 C 26.722656 5.703125 26.992188 5.886719 27.300781 5.929688 C 27.953125 6.019531 28.246094 6.242188 28.484375 6.570313 C 28.722656 6.894531 28.875 7.398438 28.921875 7.996094 C 29.015625 9.191406 28.660156 10.691406 28.4375 11.359375 C 28.304688 11.765625 28.441406 12.210938 28.785156 12.46875 C 28.800781 12.496094 28.824219 12.554688 28.8125 12.675781 C 28.757813 13.132813 28.648438 13.308594 28.613281 13.359375 C 28.207031 13.460938 27.90625 13.804688 27.863281 14.21875 C 27.820313 14.613281 27.648438 15.152344 27.449219 15.5625 C 27.347656 15.765625 27.242188 15.941406 27.164063 16.050781 C 27.085938 16.160156 26.988281 16.191406 27.167969 16.097656 C 26.835938 16.269531 26.632813 16.609375 26.628906 16.984375 C 26.628906 17.757813 26.597656 18.417969 26.683594 19.359375 C 26.691406 19.449219 26.710938 19.535156 26.742188 19.621094 C 27.125 20.648438 27.992188 21.226563 28.828125 21.65625 C 29.664063 22.082031 30.554688 22.414063 31.34375 22.84375 C 31.777344 23.074219 32.316406 22.960938 32.613281 22.566406 C 33.179688 21.832031 34.136719 21.367188 35.167969 20.910156 C 35.683594 20.679688 36.210938 20.453125 36.703125 20.132813 C 37.199219 19.8125 37.691406 19.359375 37.9375 18.699219 C 37.96875 18.617188 37.988281 18.53125 37.996094 18.441406 C 38.070313 17.632813 38 17.082031 38 16.5 C 38 16.160156 37.828125 15.84375 37.542969 15.660156 C 37.546875 15.664063 37.519531 15.644531 37.480469 15.59375 C 37.410156 15.507813 37.316406 15.367188 37.226563 15.210938 C 37.046875 14.894531 36.898438 14.488281 36.875 14.246094 C 36.832031 13.863281 36.574219 13.539063 36.214844 13.410156 C 36.199219 13.386719 36.144531 13.3125 36.105469 12.996094 C 36.101563 12.957031 36.109375 12.96875 36.113281 12.957031 C 36.394531 12.707031 36.511719 12.320313 36.417969 11.957031 C 36.019531 10.425781 35.996094 9.085938 36.34375 8.300781 C 36.683594 7.519531 37.277344 7.035156 38.96875 7 C 39.757813 7.007813 40.105469 7.257813 40.105469 7.257813 C 40.257813 7.527344 40.527344 7.707031 40.832031 7.75 C 41.320313 7.820313 41.5 7.964844 41.664063 8.191406 C 41.828125 8.417969 41.945313 8.785156 41.980469 9.25 C 42.050781 10.171875 41.773438 11.371094 41.597656 11.890625 C 41.472656 12.273438 41.585938 12.695313 41.886719 12.957031 C 41.890625 12.972656 41.898438 12.957031 41.894531 12.996094 C 41.855469 13.308594 41.796875 13.386719 41.78125 13.410156 C 41.421875 13.539063 41.167969 13.863281 41.125 14.246094 C 41.097656 14.488281 40.953125 14.894531 40.773438 15.210938 C 40.683594 15.367188 40.589844 15.507813 40.519531 15.59375 C 40.453125 15.675781 40.363281 15.707031 40.535156 15.613281 C 40.207031 15.789063 40 16.128906 40 16.5 C 40 17.082031 39.929688 17.632813 40.003906 18.441406 C 40.011719 18.53125 40.03125 18.617188 40.0625 18.699219 C 40.386719 19.566406 41.105469 20.03125 41.785156 20.382813 C 42.464844 20.734375 43.191406 21 43.84375 21.308594 C 44.496094 21.617188 45.054688 21.960938 45.421875 22.367188 C 45.785156 22.773438 46 23.21875 46 24 L 48 24 C 48 22.777344 47.558594 21.757813 46.910156 21.03125 C 46.261719 20.308594 45.457031 19.859375 44.703125 19.5 C 43.945313 19.144531 43.214844 18.871094 42.703125 18.605469 C 42.230469 18.359375 42.058594 18.167969 41.996094 18.046875 C 41.976563 17.679688 41.988281 17.308594 42 16.917969 C 42.019531 16.894531 42.054688 16.875 42.074219 16.851563 C 42.230469 16.660156 42.375 16.441406 42.515625 16.195313 C 42.714844 15.835938 42.839844 15.378906 42.953125 14.925781 C 43.078125 14.832031 43.238281 14.835938 43.339844 14.707031 C 43.636719 14.328125 43.804688 13.84375 43.878906 13.234375 C 43.945313 12.703125 43.796875 12.285156 43.578125 11.933594 C 43.792969 11.183594 44.066406 10.246094 43.972656 9.09375 C 43.921875 8.394531 43.746094 7.660156 43.28125 7.019531 C 42.859375 6.4375 42.15625 6.019531 41.332031 5.84375 C 40.699219 5.269531 39.863281 5 38.957031 5 C 38.949219 5 38.945313 5 38.9375 5 C 36.75 5.039063 35.160156 6.019531 34.511719 7.5 C 33.925781 8.832031 34.050781 10.375 34.40625 11.953125 C 34.195313 12.296875 34.058594 12.710938 34.121094 13.234375 C 34.117188 13.234375 34.117188 13.234375 34.121094 13.234375 C 34.191406 13.84375 34.363281 14.328125 34.65625 14.707031 C 34.757813 14.835938 34.917969 14.832031 35.046875 14.925781 C 35.160156 15.378906 35.28125 15.835938 35.484375 16.195313 C 35.625 16.441406 35.773438 16.660156 35.925781 16.851563 C 35.945313 16.875 35.980469 16.894531 36 16.917969 C 36.011719 17.3125 36.023438 17.6875 36.003906 18.0625 C 35.949219 18.171875 35.871094 18.289063 35.613281 18.453125 C 35.320313 18.644531 34.871094 18.851563 34.355469 19.082031 C 33.527344 19.449219 32.539063 19.984375 31.671875 20.785156 C 30.972656 20.453125 30.25 20.136719 29.742188 19.875 C 29.101563 19.546875 28.804688 19.265625 28.671875 18.96875 C 28.632813 18.40625 28.632813 17.910156 28.640625 17.359375 C 28.675781 17.3125 28.746094 17.273438 28.78125 17.222656 C 28.953125 16.992188 29.105469 16.726563 29.25 16.4375 C 29.46875 15.980469 29.601563 15.433594 29.714844 14.886719 C 29.871094 14.777344 30.058594 14.777344 30.183594 14.621094 C 30.511719 14.195313 30.710938 13.640625 30.796875 12.917969 C 30.800781 12.914063 30.800781 12.914063 30.796875 12.914063 C 30.871094 12.3125 30.707031 11.84375 30.46875 11.457031 C 30.734375 10.546875 31.027344 9.257813 30.917969 7.839844 C 30.851563 7.003906 30.640625 6.140625 30.105469 5.398438 C 29.609375 4.707031 28.785156 4.21875 27.792969 4.023438 C 27.074219 3.320313 26.070313 3 24.949219 3 C 24.945313 3 24.9375 3 24.933594 3 Z M 9.550781 25 C 9.542969 25 9.535156 25 9.523438 25 L 2 25 L 2 31.722656 C 2 31.730469 2 31.734375 2 31.738281 L 2 40.261719 C 2 40.265625 2 40.269531 2 40.277344 L 2 47 L 9.523438 47 C 9.535156 47 9.542969 47 9.550781 47 L 40.449219 47 C 40.457031 47 40.464844 47 40.472656 47 L 48 47 L 48 40.277344 C 48 40.269531 48 40.265625 48 40.261719 L 48 31.738281 C 48 31.734375 48 31.730469 48 31.722656 L 48 25 L 40.472656 25 C 40.464844 25 40.457031 25 40.449219 25 Z M 4 27 L 6.316406 27 C 6.097656 27.394531 5.941406 27.777344 5.8125 28.066406 C 5.675781 28.386719 5.53125 28.59375 5.570313 28.550781 C 5.613281 28.511719 5.414063 28.652344 5.109375 28.777344 C 4.808594 28.898438 4.410156 29.039063 4 29.222656 Z M 9.550781 27 L 40.449219 27 C 41.332031 27 41.558594 27.308594 41.890625 27.875 C 42.054688 28.160156 42.195313 28.507813 42.347656 28.859375 C 42.503906 29.214844 42.628906 29.585938 43.011719 29.96875 C 43.390625 30.347656 43.773438 30.480469 44.144531 30.628906 C 44.515625 30.78125 44.890625 30.914063 45.203125 31.054688 C 45.515625 31.195313 45.757813 31.351563 45.875 31.46875 C 45.988281 31.582031 46 31.597656 46 31.738281 L 46 40.261719 C 46 40.402344 45.988281 40.417969 45.875 40.53125 C 45.757813 40.648438 45.515625 40.804688 45.203125 40.945313 C 44.890625 41.085938 44.515625 41.21875 44.144531 41.371094 C 43.773438 41.519531 43.390625 41.652344 43.011719 42.03125 C 42.628906 42.414063 42.503906 42.785156 42.347656 43.140625 C 42.195313 43.492188 42.054688 43.839844 41.890625 44.125 C 41.558594 44.691406 41.332031 45 40.449219 45 L 9.550781 45 C 8.667969 45 8.441406 44.691406 8.109375 44.125 C 7.945313 43.839844 7.800781 43.492188 7.648438 43.140625 C 7.496094 42.785156 7.367188 42.414063 6.984375 42.03125 C 6.605469 41.652344 6.226563 41.519531 5.855469 41.371094 C 5.484375 41.21875 5.109375 41.085938 4.796875 40.945313 C 4.484375 40.804688 4.242188 40.648438 4.125 40.53125 C 4.011719 40.417969 4 40.402344 4 40.261719 L 4 31.738281 C 4 31.667969 4.003906 31.628906 4.023438 31.59375 C 4.039063 31.558594 4.070313 31.523438 4.125 31.46875 C 4.242188 31.351563 4.484375 31.195313 4.796875 31.054688 C 5.109375 30.914063 5.484375 30.78125 5.855469 30.628906 C 6.226563 30.480469 6.605469 30.347656 6.984375 29.96875 C 7.367188 29.585938 7.496094 29.214844 7.648438 28.859375 C 7.800781 28.507813 7.945313 28.160156 8.109375 27.875 C 8.441406 27.308594 8.667969 27 9.550781 27 Z M 43.683594 27 L 46 27 L 46 29.222656 C 45.589844 29.039063 45.191406 28.898438 44.890625 28.777344 C 44.585938 28.652344 44.382813 28.511719 44.425781 28.550781 C 44.46875 28.59375 44.324219 28.386719 44.1875 28.066406 C 44.058594 27.777344 43.902344 27.394531 43.683594 27 Z M 25 29 C 21.144531 29 18 32.144531 18 36 C 18 39.855469 21.144531 43 25 43 C 28.855469 43 32 39.855469 32 36 C 32 32.144531 28.855469 29 25 29 Z M 25 31 C 27.773438 31 30 33.226563 30 36 C 30 38.773438 27.773438 41 25 41 C 22.226563 41 20 38.773438 20 36 C 20 33.226563 22.226563 31 25 31 Z M 11 34 C 9.90625 34 9 34.90625 9 36 C 9 37.09375 9.90625 38 11 38 C 12.09375 38 13 37.09375 13 36 C 13 34.90625 12.09375 34 11 34 Z M 39 34 C 37.90625 34 37 34.90625 37 36 C 37 37.09375 37.90625 38 39 38 C 40.09375 38 41 37.09375 41 36 C 41 34.90625 40.09375 34 39 34 Z M 4 42.777344 C 4.410156 42.960938 4.808594 43.101563 5.109375 43.222656 C 5.414063 43.347656 5.613281 43.488281 5.570313 43.449219 C 5.53125 43.40625 5.675781 43.613281 5.8125 43.933594 C 5.941406 44.222656 6.097656 44.605469 6.316406 45 L 4 45 Z M 46 42.777344 L 46 45 L 43.683594 45 C 43.902344 44.605469 44.058594 44.222656 44.1875 43.933594 C 44.324219 43.613281 44.46875 43.40625 44.425781 43.449219 C 44.382813 43.488281 44.585938 43.347656 44.890625 43.222656 C 45.191406 43.101563 45.589844 42.960938 46 42.777344 Z" fill="#8457ff"/></svg>
