<svg xmlns="http://www.w3.org/2000/svg" viewBox="0 0 48 48"><path fill="#d2a572" d="M24,2C11.85,2,2,11.85,2,24s9.85,22,22,22s22-9.85,22-22S36.15,2,24,2z M24,27c-1.657,0-3-1.343-3-3	s1.343-3,3-3s3,1.343,3,3S25.657,27,24,27z"/><path fill="#d2a572" d="M44.564,16.426c-0.719-1.842-1.596-4.149-4.691-7.404L26.085,21.085l1.58,3.495L45.745,26 C46.255,21.5,45.282,18.266,44.564,16.426z"/><path fill="#d5ac79" d="M44.563,16.412c-0.692-1.771-1.48-3.861-4.345-6.908L26.23,21.213l1.445,3.191L45.7,25.323 C46.13,21.114,45.254,18.182,44.563,16.412z"/><path fill="#d9b381" d="M44.563,16.399c-0.664-1.7-1.365-3.574-3.998-6.412L26.375,21.34l1.31,2.888l17.971,0.418 C46.005,20.728,45.226,18.098,44.563,16.399z"/><path fill="#dcb988" d="M44.562,16.386c-0.636-1.629-1.249-3.286-3.651-5.915L26.52,21.468l1.175,2.585l17.917-0.083 C45.88,20.343,45.198,18.014,44.562,16.386z"/><path fill="#dfc090" d="M44.561,16.373c-0.608-1.558-1.134-2.999-3.304-5.419L26.665,21.596l1.04,2.282l17.862-0.584 C45.755,19.957,45.169,17.93,44.561,16.373z"/><path fill="#e3c797" d="M44.561,16.359c-0.581-1.487-1.018-2.711-2.957-4.923L26.81,21.723l0.905,1.979l17.808-1.085 C45.63,19.571,45.141,17.846,44.561,16.359z"/><path fill="#e6ce9f" d="M44.56,16.346c-0.553-1.416-0.903-2.424-2.61-4.426l-14.994,9.931l0.77,1.676l17.753-1.586 C45.505,19.185,45.113,17.762,44.56,16.346z"/><path fill="#ead5a6" d="M44.559,16.333c-0.525-1.345-0.787-2.136-2.263-3.93l-15.195,9.576l0.635,1.372l17.699-2.087 C45.38,18.8,45.084,17.678,44.559,16.333z"/><path fill="#eddcae" d="M44.559,16.32c-0.498-1.274-0.672-1.849-1.916-3.434l-15.397,9.221l0.5,1.069l17.644-2.588 C45.254,18.414,45.056,17.594,44.559,16.32z"/><path fill="#f0e2b5" d="M44.558,16.306c-0.47-1.204-0.556-1.561-1.57-2.937l-15.598,8.865L27.756,23l17.59-3.089 C45.129,18.028,45.028,17.51,44.558,16.306z"/><path fill="#f4e9bd" d="M44.557,16.293c-0.442-1.133-0.44-1.274-1.223-2.441l-15.799,8.51l0.231,0.463l17.536-3.59 C45.004,17.642,45,17.426,44.557,16.293z"/><path fill="#f7f0c4" d="M44.557,16.28c-0.415-1.062-0.325-0.986-0.876-1.945l-16,8.154l0.096,0.16l17.481-4.091 C44.879,17.257,44.971,17.342,44.557,16.28z"/><path fill="#d2a572" d="M4.319,14.899l12.734,5.952l2.426-2.745L11.053,6.362C7.863,8.653,5.921,11.442,4.319,14.899z"/><path fill="#d2a170" d="M4.502,14.607l12.574,6.046l2.22-2.507L10.799,6.623C7.79,8.795,6.027,11.346,4.502,14.607z"/><path fill="#d29d6e" d="M4.685,14.316L17.1,20.456l2.014-2.269L10.546,6.885C7.716,8.938,6.133,11.25,4.685,14.316z"/><path fill="#d29a6c" d="M4.868,14.024l12.255,6.235l1.808-2.031L10.292,7.147C7.643,9.08,6.238,11.154,4.868,14.024z"/><path fill="#d2966a" d="M5.05,13.733l12.096,6.329l1.602-1.793l-8.71-10.86C7.569,9.222,6.344,11.058,5.05,13.733z"/><path fill="#d29268" d="M5.233,13.441l11.936,6.424l1.396-1.555L9.784,7.67C7.495,9.364,6.45,10.962,5.233,13.441z"/><path fill="#d18e67" d="M5.416,13.149l11.777,6.518l1.19-1.317L9.53,7.932C7.422,9.506,6.555,10.866,5.416,13.149z"/><path fill="#d18a65" d="M5.599,12.858l11.617,6.612l0.984-1.079L9.276,8.193C7.348,9.648,6.661,10.77,5.599,12.858z"/><path fill="#d18663" d="M5.781,12.566l11.457,6.706l0.778-0.841L9.023,8.455C7.275,9.791,6.767,10.674,5.781,12.566z"/><path fill="#d18361" d="M5.964,12.275l11.298,6.801l0.572-0.603L8.769,8.717C7.201,9.933,6.872,10.578,5.964,12.275z"/><path fill="#d17f5f" d="M6.147,11.983l11.138,6.895l0.366-0.366L8.515,8.978C7.127,10.075,6.978,10.482,6.147,11.983z"/><path fill="#d17b5d" d="M6.33,11.691l10.979,6.989l0.16-0.128L8.261,9.24C7.054,10.217,7.084,10.386,6.33,11.691z"/><g><path fill="#d2a572" d="M15.936,3.745c-1.842,0.719-3.342,1.617-4.867,2.729l8.41,11.633l3.447-1.404l-1.723-14.33 C19.329,2.588,17.776,3.026,15.936,3.745z"/><path fill="#d4a974" d="M15.92,3.767c-1.771,0.692-3.083,1.452-4.557,2.513l8.222,11.682l3.168-1.285L20.838,2.475 C19.037,2.694,17.69,3.076,15.92,3.767z"/><path fill="#d5ad77" d="M15.905,3.79c-1.7,0.664-2.824,1.286-4.246,2.296l8.035,11.73l2.89-1.166L20.474,2.578 C18.745,2.799,17.603,3.127,15.905,3.79z"/><path fill="#d7b179" d="M15.889,3.812c-1.629,0.636-2.565,1.121-3.936,2.08l7.848,11.779l2.611-1.047L20.11,2.681 C18.453,2.905,17.517,3.177,15.889,3.812z"/><path fill="#d9b57b" d="M15.873,3.835c-1.558,0.608-2.306,0.956-3.625,1.864l7.66,11.827l2.333-0.928L19.746,2.784 C18.162,3.011,17.43,3.227,15.873,3.835z"/><path fill="#dab97e" d="M15.857,3.858c-1.487,0.581-2.047,0.791-3.315,1.648l7.473,11.876l2.054-0.809L19.382,2.887 C17.87,3.116,17.344,3.277,15.857,3.858z"/><path fill="#dcbc80" d="M15.841,3.88c-1.416,0.553-1.788,0.625-3.004,1.431l7.286,11.924l1.776-0.691L19.017,2.99 C17.578,3.222,17.257,3.327,15.841,3.88z"/><path fill="#ddc083" d="M15.826,3.903c-1.345,0.525-1.529,0.46-2.694,1.215l7.098,11.973l1.497-0.572L18.653,3.093 C17.286,3.328,17.17,3.378,15.826,3.903z"/><path fill="#dfc485" d="M15.81,3.925c-1.274,0.498-1.27,0.295-2.383,0.999l6.911,12.021l1.219-0.453L18.289,3.196 C16.994,3.433,17.084,3.428,15.81,3.925z"/><path fill="#e1c887" d="M15.794,3.948c-1.204,0.47-1.011,0.13-2.073,0.783l6.724,12.07l0.94-0.334l-3.46-13.168 C16.702,3.539,16.997,3.478,15.794,3.948z"/><path fill="#e2cc8a" d="M15.778,3.971c-1.133,0.442-0.752-0.035-1.762,0.567l6.536,12.118l0.662-0.215L17.561,3.402 C16.41,3.644,16.911,3.528,15.778,3.971z"/><path fill="#e4d08c" d="M15.762,3.993c-1.062,0.415-0.493-0.201-1.452,0.35l6.349,12.167l0.383-0.096l-3.846-12.91 C16.118,3.75,16.824,3.579,15.762,3.993z"/></g><g><path fill="#d2a572" d="M21.198,2.234l1.568,13.223l4.277,0.67L32.5,3.777C28.979,2.32,25.097,1.758,21.198,2.234z"/><path fill="#cfa470" d="M21.55,2.228l1.384,13.235l3.94,0.603l5.254-12.397C28.746,2.298,25.283,1.792,21.55,2.228z"/><path fill="#cda26d" d="M21.902,2.222l1.2,13.247l3.603,0.537l5.051-12.444C28.512,2.276,25.47,1.827,21.902,2.222z"/><path fill="#caa16b" d="M22.254,2.216l1.017,13.259l3.267,0.47l4.848-12.49C28.278,2.255,25.657,1.861,22.254,2.216z"/><path fill="#c7a068" d="M22.606,2.21l0.833,13.27l2.93,0.403l4.645-12.537C28.044,2.233,25.843,1.896,22.606,2.21z"/><path fill="#c59f66" d="M22.958,2.204l0.649,13.282l2.594,0.337L30.643,3.24C27.81,2.211,26.03,1.931,22.958,2.204z"/><path fill="#c29d63" d="M23.31,2.198l0.465,13.294l2.257,0.27l4.239-12.63C27.577,2.189,26.217,1.965,23.31,2.198z"/><path fill="#c09c61" d="M23.662,2.192l0.282,13.306l1.921,0.203L29.9,3.025C27.343,2.167,26.404,2,23.662,2.192z"/><path fill="#bd9b5e" d="M24.014,2.186l0.098,13.317l1.584,0.136l3.833-12.722C27.109,2.145,26.59,2.034,24.014,2.186z"/><path fill="#ba9a5c" d="M24.366,2.18L24.28,15.51l1.248,0.07l3.63-12.769C26.875,2.123,26.777,2.069,24.366,2.18z"/><path fill="#b89859" d="M24.718,2.175l-0.27,13.341l0.911,0.003l3.426-12.815C26.642,2.101,26.964,2.104,24.718,2.175z"/><path fill="#b59757" d="M25.071,2.169l-0.454,13.353l0.574-0.064l3.223-12.862C26.408,2.08,27.15,2.138,25.071,2.169z"/></g><g><path fill="#d2a572" d="M3.436,31.574c0.719,1.842,1.596,4.149,4.691,7.404l13.787-12.064l-1.58-3.495L2.255,22 C1.745,26.5,2.718,29.734,3.436,31.574z"/><path fill="#d5ac79" d="M3.437,31.588c0.692,1.771,1.48,3.861,4.345,6.908L21.77,26.787l-1.445-3.191L2.3,22.677 C1.87,26.886,2.746,29.818,3.437,31.588z"/><path fill="#d9b381" d="M3.437,31.601c0.664,1.7,1.365,3.574,3.998,6.412l14.19-11.353l-1.31-2.888L2.344,23.353 C1.995,27.272,2.774,29.902,3.437,31.601z"/><path fill="#dcb988" d="M3.438,31.614c0.636,1.629,1.249,3.286,3.651,5.915L21.48,26.532l-1.175-2.585L2.388,24.03 C2.12,27.657,2.802,29.986,3.438,31.614z"/><path fill="#dfc090" d="M3.439,31.627c0.608,1.558,1.134,2.999,3.304,5.419l14.592-10.642l-1.04-2.282L2.432,24.706 C2.245,28.043,2.831,30.07,3.439,31.627z"/><path fill="#e3c797" d="M3.439,31.641c0.581,1.487,1.018,2.711,2.957,4.923L21.19,26.277l-0.905-1.979L2.477,25.383 C2.37,28.429,2.859,30.154,3.439,31.641z"/><path fill="#e6ce9f" d="M3.44,31.654c0.553,1.416,0.903,2.424,2.61,4.426l14.994-9.931l-0.77-1.676L2.521,26.059 C2.495,28.815,2.887,30.238,3.44,31.654z"/><path fill="#ead5a6" d="M3.441,31.667c0.525,1.345,0.787,2.136,2.263,3.93l15.195-9.576l-0.635-1.372L2.565,26.736 C2.62,29.2,2.916,30.322,3.441,31.667z"/><path fill="#eddcae" d="M3.441,31.68c0.498,1.274,0.672,1.849,1.916,3.434l15.397-9.221l-0.5-1.069L2.609,27.412 C2.746,29.586,2.944,30.406,3.441,31.68z"/><path fill="#f0e2b5" d="M3.442,31.694c0.47,1.204,0.556,1.561,1.57,2.937l15.598-8.865L20.244,25l-17.59,3.089 C2.871,29.972,2.972,30.49,3.442,31.694z"/><path fill="#f4e9bd" d="M3.443,31.707c0.442,1.133,0.44,1.274,1.223,2.441l15.799-8.51l-0.231-0.463l-17.536,3.59 C2.996,30.358,3,30.574,3.443,31.707z"/><path fill="#f7f0c4" d="M3.443,31.72c0.415,1.062,0.325,0.986,0.876,1.945l16-8.154l-0.096-0.16L2.742,29.442 C3.121,30.743,3.029,30.658,3.443,31.72z"/></g><g><path fill="#d2a572" d="M43.574,33.585l-12.383-5.777l-2.936,2.601l8.394,11.569C39.839,39.687,41.972,37.042,43.574,33.585 z"/><path fill="#d2a170" d="M43.36,33.875l-12.255-5.913l-2.684,2.376l8.468,11.39C39.898,39.557,41.835,37.136,43.36,33.875z"/><path fill="#d29d6e" d="M43.145,34.165l-12.128-6.049l-2.431,2.151l8.541,11.211C39.957,39.426,41.697,37.231,43.145,34.165 z"/><path fill="#d29a6c" d="M42.93,34.456l-12-6.186l-2.179,1.927l8.615,11.032C40.016,39.295,41.56,37.326,42.93,34.456z"/><path fill="#d2966a" d="M42.716,34.746l-11.872-6.322l-1.926,1.702l8.689,10.853C40.075,39.165,41.422,37.42,42.716,34.746z"/><path fill="#d29268" d="M42.501,35.036l-11.745-6.458l-1.674,1.477l8.763,10.674C40.134,39.034,41.284,37.515,42.501,35.036 z"/><path fill="#d18e67" d="M42.286,35.326l-11.617-6.595l-1.422,1.252l8.837,10.495C40.193,38.904,41.147,37.609,42.286,35.326 z"/><path fill="#d18a65" d="M42.072,35.616l-11.489-6.731l-1.169,1.027l8.911,10.316C40.252,38.773,41.009,37.704,42.072,35.616 z"/><path fill="#d18663" d="M41.857,35.906l-11.362-6.868l-0.917,0.802l8.985,10.137C40.311,38.643,40.872,37.798,41.857,35.906 z"/><path fill="#d18361" d="M41.642,36.196l-11.234-7.004l-0.664,0.577l9.059,9.958C40.37,38.512,40.734,37.893,41.642,36.196z"/><path fill="#d17f5f" d="M41.427,36.486l-11.106-7.14l-0.412,0.353l9.133,9.779C40.43,38.382,40.596,37.988,41.427,36.486z"/><path fill="#d17b5d" d="M41.213,36.777L30.234,29.5l-0.16,0.128l9.207,9.6C40.489,38.251,40.459,38.082,41.213,36.777z"/></g><g><path fill="#d2a572" d="M31.802,44.542c1.842-0.719,3.513-1.677,5.037-2.789L28.67,30.904l-3.83,1.213l1.372,13.787 C28.086,45.688,29.962,45.26,31.802,44.542z"/><path fill="#d4a974" d="M31.816,44.528c1.771-0.692,3.223-1.534,4.697-2.595l-7.987-10.979l-3.516,1.114l1.596,13.744 C28.405,45.593,30.046,45.219,31.816,44.528z"/><path fill="#d5ad77" d="M31.83,44.515c1.7-0.664,2.934-1.392,4.356-2.402l-7.806-11.11l-3.203,1.015l1.819,13.7 C28.725,45.497,30.131,45.178,31.83,44.515z"/><path fill="#d7b179" d="M31.844,44.502c1.629-0.636,2.645-1.25,4.015-2.209l-7.624-11.241l-2.89,0.917l2.043,13.657 C29.044,45.402,30.216,45.137,31.844,44.502z"/><path fill="#d9b57b" d="M31.858,44.488c1.558-0.608,2.355-1.107,3.674-2.015L28.09,31.102l-2.576,0.818l2.266,13.613 C29.364,45.307,30.301,45.096,31.858,44.488z"/><path fill="#dab97e" d="M31.872,44.475c1.487-0.581,2.066-0.965,3.334-1.822l-7.26-11.502l-2.263,0.72l2.489,13.57 C29.683,45.211,30.385,45.055,31.872,44.475z"/><path fill="#dcbc80" d="M31.886,44.462c1.416-0.553,1.777-0.823,2.993-1.629L27.8,31.2l-1.95,0.621l2.713,13.526 C30.002,45.116,30.47,45.014,31.886,44.462z"/><path fill="#ddc083" d="M31.9,44.448c1.345-0.525,1.487-0.68,2.652-1.435L27.655,31.25l-1.636,0.522l2.936,13.483 C30.322,45.02,30.555,44.974,31.9,44.448z"/><path fill="#dfc485" d="M31.914,44.435c1.274-0.498,1.198-0.538,2.311-1.242L27.51,31.299l-1.323,0.424l3.16,13.439 C30.641,44.925,30.64,44.933,31.914,44.435z"/><path fill="#e1c887" d="M31.928,44.422c1.204-0.47,0.909-0.395,1.97-1.048l-6.533-12.025l-1.01,0.325l3.383,13.396 C30.961,44.829,30.724,44.892,31.928,44.422z"/><path fill="#e2cc8a" d="M31.942,44.408c1.133-0.442,0.619-0.253,1.63-0.855L27.22,31.397l-0.696,0.226l3.606,13.352 C31.28,44.734,30.809,44.851,31.942,44.408z"/><path fill="#e4d08c" d="M31.956,44.395c1.062-0.415,0.33-0.111,1.289-0.662l-6.17-12.287l-0.383,0.128l3.83,13.309 C31.6,44.638,30.894,44.81,31.956,44.395z"/></g><g><path fill="#d2a572" d="M26.628,45.745L24.84,31.862l-3.511-0.606l-6.004,12.947C18.846,45.659,22.729,46.221,26.628,45.745 z"/><path fill="#cfa470" d="M26.268,45.739L24.721,31.87l-3.212-0.612l-5.82,13.039C19.072,45.669,22.535,46.175,26.268,45.739z"/><path fill="#cda26d" d="M25.908,45.733l-1.306-13.854l-2.913-0.618l-5.637,13.132C19.298,45.679,22.34,46.128,25.908,45.733 z"/><path fill="#caa16b" d="M25.548,45.727l-1.065-13.839l-2.614-0.624l-5.453,13.225 C19.524,45.689,22.146,46.082,25.548,45.727z"/><path fill="#c7a068" d="M25.189,45.721l-0.824-13.825l-2.315-0.63L16.78,44.584C19.75,45.699,21.951,46.036,25.189,45.721z"/><path fill="#c59f66" d="M24.829,45.716l-0.583-13.81l-2.016-0.635l-5.085,13.41C19.977,45.709,21.757,45.989,24.829,45.716z"/><path fill="#c29d63" d="M24.469,45.71l-0.342-13.796l-1.718-0.641l-4.902,13.503C20.203,45.719,21.562,45.943,24.469,45.71z"/><path fill="#c09c61" d="M24.109,45.704l-0.102-13.781l-1.419-0.647l-4.718,13.596 C20.429,45.729,21.368,45.897,24.109,45.704z"/><path fill="#bd9b5e" d="M23.75,45.698l0.139-13.767l-1.12-0.653l-4.534,13.688C20.655,45.739,21.174,45.85,23.75,45.698z"/><path fill="#ba9a5c" d="M23.39,45.692l0.38-13.752l-0.821-0.659l-4.35,13.781C20.881,45.75,20.979,45.804,23.39,45.692z"/><path fill="#b89859" d="M23.03,45.687l0.621-13.738l-0.522-0.664l-4.166,13.874C21.107,45.76,20.785,45.758,23.03,45.687z"/><path fill="#b59757" d="M22.67,45.681l0.862-13.723l-0.223-0.67l-3.983,13.966C21.333,45.77,20.59,45.711,22.67,45.681z"/></g><linearGradient id="Mt7yxTlqOwYtN797~_1VPa" x1="24" x2="24" y1="20.681" y2="2.681" gradientUnits="userSpaceOnUse"><stop offset="0" stop-color="#d28862"/><stop offset=".319" stop-color="#d9a177"/><stop offset=".75" stop-color="#e0bd8e"/><stop offset="1" stop-color="#e3c797"/></linearGradient><path fill="url(#Mt7yxTlqOwYtN797~_1VPa)" d="M24,15c-4.971,0-9,4.029-9,9c0,4.971,4.029,9,9,9s9-4.029,9-9C33,19.029,28.971,15,24,15z M24,27c-1.657,0-3-1.343-3-3s1.343-3,3-3s3,1.343,3,3S25.657,27,24,27z"/><linearGradient id="Mt7yxTlqOwYtN797~_1VPb" x1="24" x2="24" y1="37.702" y2="19.915" gradientUnits="userSpaceOnUse"><stop offset="0" stop-color="#999"/><stop offset=".313" stop-color="#c4c4c4"/><stop offset=".598" stop-color="#e4e4e4"/><stop offset=".837" stop-color="#f8f8f8"/><stop offset="1" stop-color="#fff"/></linearGradient><path fill="url(#Mt7yxTlqOwYtN797~_1VPb)" d="M24,17c-3.866,0-7,3.134-7,7c0,3.866,3.134,7,7,7s7-3.134,7-7C31,20.134,27.866,17,24,17z M24,27c-1.657,0-3-1.343-3-3s1.343-3,3-3s3,1.343,3,3S25.657,27,24,27z"/><linearGradient id="Mt7yxTlqOwYtN797~_1VPc" x1="24" x2="24" y1="37.575" y2=".983" gradientUnits="userSpaceOnUse"><stop offset="0" stop-color="#d28862"/><stop offset=".319" stop-color="#d9a177"/><stop offset=".75" stop-color="#e0bd8e"/><stop offset="1" stop-color="#e3c797"/></linearGradient><path fill="url(#Mt7yxTlqOwYtN797~_1VPc)" d="M24,2C11.85,2,2,11.85,2,24s9.85,22,22,22s22-9.85,22-22S36.15,2,24,2z M24,45.644	c-11.953,0-21.644-9.69-21.644-21.644S12.047,2.356,24,2.356S45.644,12.047,45.644,24S35.953,45.644,24,45.644z"/><path fill="#e2e2e2" d="M24,20c-2.209,0-4,1.791-4,4c0,2.209,1.791,4,4,4s4-1.791,4-4C28,21.791,26.209,20,24,20z M24,27	c-1.657,0-3-1.343-3-3s1.343-3,3-3s3,1.343,3,3S25.657,27,24,27z"/></svg>