<?xml version="1.0" encoding="utf-8"?>
<svg xmlns="http://www.w3.org/2000/svg" viewBox="0 0 50 50" fill="#5d14e4"><path d="M 37.996094 2 C 35.247484 2 33 4.2525982 33 7 C 33 9.7474018 35.247484 12 37.996094 12 C 40.750748 12 43 9.7474018 43 7 C 43 4.2525982 40.750748 2 37.996094 2 z M 37.996094 4 C 39.67144 4 41 5.3334018 41 7 C 41 8.6665982 39.67144 10 37.996094 10 C 36.330704 10 35 8.6665982 35 7 C 35 5.3334018 36.330704 4 37.996094 4 z M 23 9 C 22.476753 9 21.983915 9.1447145 21.556641 9.3828125 A 1.0001 1.0001 0 0 0 21.304688 9.5117188 L 14.373047 14.484375 A 1.0001 1.0001 0 0 0 14.083984 14.8125 C 13.459634 15.359518 13 16.104629 13 17 C 13 18.64497 14.35503 20 16 20 C 16.492346 20 16.874414 19.737143 17.279297 19.527344 A 1.0001 1.0001 0 0 0 17.869141 19.339844 L 23.457031 15.322266 L 26.169922 16.181641 L 21.904297 23.136719 A 1.0001 1.0001 0 0 0 21.802734 23.365234 C 21.357984 24.071126 21.062918 24.887137 21.017578 25.775391 A 1.0001 1.0001 0 0 0 20.953125 25.865234 L 17.693359 31 L 10.5 31 C 8.578557 31 7 32.578557 7 34.5 C 7 36.421443 8.578557 38 10.5 38 L 18.933594 38 C 20.553904 38 22.075258 37.212907 23.011719 35.890625 L 25.912109 31.798828 L 30.640625 34.714844 L 29.064453 42.820312 A 1.0001 1.0001 0 0 0 29.046875 43.035156 C 29.025356 43.185071 29 43.331826 29 43.5 C 29 45.421443 30.578557 47 32.5 47 C 33.954194 47 35.064485 46.01174 35.587891 44.736328 A 1.0001 1.0001 0 0 0 35.939453 44.148438 L 37.966797 33.476562 A 1.0001 1.0001 0 0 0 37.980469 33.210938 C 37.989289 33.143078 38 33.110387 38 33 C 38 32.272213 37.692426 31.636756 37.259766 31.119141 A 1.0001 1.0001 0 0 0 37.003906 30.759766 L 32.177734 26.482422 L 33.863281 23.152344 L 35.267578 26.251953 A 1.0001 1.0001 0 0 0 35.378906 26.4375 C 35.889614 27.362972 36.871742 28 38 28 L 45 28 C 46.64497 28 48 26.64497 48 25 C 48 23.35503 46.64497 22 45 22 L 39.664062 22 L 36.970703 15.582031 C 36.826148 14.345909 36.055845 13.333705 35.03125 12.697266 A 1.0001 1.0001 0 0 0 34.677734 12.367188 L 32.169922 10.972656 A 1.0001 1.0001 0 0 0 31.896484 10.869141 L 23.732422 9.0898438 A 1.0001 1.0001 0 0 0 23.498047 9.0683594 C 23.336825 9.038364 23.181377 9 23 9 z M 23 11 C 23.06735 11 23.148348 11.010456 23.240234 11.035156 A 1.0001 1.0001 0 0 0 23.705078 11.048828 L 23.515625 11.087891 L 31.326172 12.792969 L 33.435547 13.964844 L 33.300781 13.697266 A 1.0001 1.0001 0 0 0 33.796875 14.167969 C 34.502849 14.474135 35 15.172168 35 16 C 35 16.345592 34.90475 16.668211 34.730469 16.978516 A 1.0001 1.0001 0 0 0 34.707031 17.916016 L 34.490234 17.482422 L 30.044922 26.267578 A 1.0001 1.0001 0 0 0 30.275391 27.466797 L 35.480469 32.083984 L 35.404297 31.859375 A 1.0001 1.0001 0 0 0 35.673828 32.269531 C 35.876168 32.454586 36 32.708951 36 33 C 36 32.97148 35.996799 33.01206 35.980469 33.134766 A 1.0001 1.0001 0 0 0 36.080078 33.716797 L 35.9375 33.443359 L 34.128906 42.960938 L 34.953125 42.960938 A 1.0001 1.0001 0 0 0 33.970703 43.779297 C 33.841983 44.473787 33.24385 45 32.5 45 C 31.655443 45 31 44.344557 31 43.5 C 31 43.41137 31.01034 43.312265 31.03125 43.207031 A 1.0001 1.0001 0 0 0 31.042969 43.134766 A 1.0001 1.0001 0 0 0 31.046875 43.107422 L 32.736328 34.417969 A 1.0001 1.0001 0 0 0 32.279297 33.375 L 25.001953 28.886719 L 25.113281 29.21875 A 1.0001 1.0001 0 0 0 24.626953 28.648438 C 23.659246 28.143809 23 27.161492 23 26 C 23 25.34714 23.20978 24.75303 23.568359 24.253906 A 1.0001 1.0001 0 0 0 23.757812 23.693359 L 23.757812 23.941406 L 28.542969 16.138672 A 1.0001 1.0001 0 0 0 27.994141 14.662109 L 23.583984 13.265625 A 1.0001 1.0001 0 0 0 22.697266 13.40625 L 17.390625 17.21875 L 17.988281 17.816406 A 1.0001 1.0001 0 0 0 16.636719 17.759766 C 16.451866 17.915852 16.242678 18 16 18 C 15.43497 18 15 17.56503 15 17 C 15 16.633846 15.188496 16.334032 15.482422 16.154297 A 1.0001 1.0001 0 0 0 15.625 16.046875 L 22.289062 11.265625 L 22.113281 11.298828 A 1.0001 1.0001 0 0 0 22.472656 11.15625 C 22.626588 11.056794 22.802468 11 23 11 z M 9.2128906 16.388672 C 8.6991148 16.369342 8.1779979 16.54405 7.7773438 16.916016 L 7.7773438 16.914062 L 4.5996094 19.863281 C 3.7974176 20.606051 3.7482568 21.888145 4.4921875 22.689453 L 8.9355469 27.478516 C 9.6788597 28.279158 10.96166 28.326755 11.761719 27.583984 L 14.939453 24.634766 C 15.740303 23.8918 15.78842 22.609436 15.044922 21.808594 L 15.046875 21.808594 L 10.603516 17.021484 C 10.232084 16.620434 9.7266664 16.408002 9.2128906 16.388672 z M 9.1367188 18.380859 L 13.580078 23.167969 L 13.580078 23.169922 L 10.402344 26.117188 L 5.9589844 21.330078 L 9.1367188 18.380859 z M 36.113281 18.705078 L 38.078125 23.386719 A 1.0001 1.0001 0 0 0 39 24 L 45 24 C 45.56503 24 46 24.43497 46 25 C 46 25.56503 45.56503 26 45 26 L 38 26 C 37.592675 26 37.25777 25.762736 37.095703 25.419922 A 1.0001 1.0001 0 0 0 36.779297 25.039062 L 36.972656 25.166016 L 35.021484 20.861328 L 36.113281 18.705078 z M 21.701172 28.417969 C 22.108273 29.073035 22.665805 29.632139 23.3125 30.0625 A 1.0001 1.0001 0 0 0 23.642578 30.398438 L 24.207031 30.746094 L 21.380859 34.734375 C 20.81732 35.530093 19.907284 36 18.933594 36 L 10.5 36 C 9.655443 36 9 35.344557 9 34.5 C 9 33.655443 9.655443 33 10.5 33 L 18.242188 33 A 1.0001 1.0001 0 0 0 19.085938 32.535156 L 21.701172 28.417969 z" fill="#5d14e4"/></svg>
