<?xml version="1.0" encoding="utf-8"?>
<svg xmlns="http://www.w3.org/2000/svg" viewBox="0 0 80 80" fill="#5d14e4"><path d="M 70.921875 10.203125 L 58.683594 10.578125 L 61.554688 14.875 L 57.582031 18.050781 L 44.371094 20.085938 L 40.390625 27.050781 L 29.40625 28.050781 L 23.308594 38.210938 L 7.601563 45.082031 L 8.398438 46.917969 L 24.691406 39.789063 L 30.59375 29.949219 L 41.609375 28.949219 L 45.628906 21.914063 L 58.417969 19.949219 L 62.671875 16.546875 L 66.304688 21.984375 L 67.003906 20.199219 Z M 67.953125 12.296875 L 65.84375 17.6875 L 62.355469 12.46875 Z M 61 25.75 L 61 71 L 58 71 L 58 34.75 L 48 34.75 L 48 71 L 45 71 L 45 40.75 L 35 40.75 L 35 71 L 32 71 L 32 50.75 L 22 50.75 L 22 71 L 19 71 L 19 57.75 L 9 57.75 L 9 71 L 5 71 L 5 73 L 75 73 L 75 71 L 71 71 L 71 25.75 Z M 63 27.75 L 69 27.75 L 69 29 C 68.449219 29 68 29.449219 68 30 C 68 30.550781 68.449219 31 69 31 L 69 35 C 68.449219 35 68 35.449219 68 36 C 68 36.550781 68.449219 37 69 37 L 69 41 C 68.449219 41 68 41.449219 68 42 C 68 42.550781 68.449219 43 69 43 L 69 47 C 68.449219 47 68 47.449219 68 48 C 68 48.550781 68.449219 49 69 49 L 69 53 C 68.449219 53 68 53.449219 68 54 C 68 54.550781 68.449219 55 69 55 L 69 59 C 68.449219 59 68 59.449219 68 60 C 68 60.550781 68.449219 61 69 61 L 69 65 C 68.449219 65 68 65.449219 68 66 C 68 66.550781 68.449219 67 69 67 L 69 71 L 63 71 L 63 67 C 63.550781 67 64 66.550781 64 66 C 64 65.449219 63.550781 65 63 65 L 63 61 C 63.550781 61 64 60.550781 64 60 C 64 59.449219 63.550781 59 63 59 L 63 55 C 63.550781 55 64 54.550781 64 54 C 64 53.449219 63.550781 53 63 53 L 63 49 C 63.550781 49 64 48.550781 64 48 C 64 47.449219 63.550781 47 63 47 L 63 43 C 63.550781 43 64 42.550781 64 42 C 64 41.449219 63.550781 41 63 41 L 63 37 C 63.550781 37 64 36.550781 64 36 C 64 35.449219 63.550781 35 63 35 L 63 31 C 63.550781 31 64 30.550781 64 30 C 64 29.449219 63.550781 29 63 29 Z M 66 32 C 65.449219 32 65 32.449219 65 33 C 65 33.550781 65.449219 34 66 34 C 66.550781 34 67 33.550781 67 33 C 67 32.449219 66.550781 32 66 32 Z M 50 36.75 L 56 36.75 L 56 71 L 50 71 Z M 66 38 C 65.449219 38 65 38.449219 65 39 C 65 39.550781 65.449219 40 66 40 C 66.550781 40 67 39.550781 67 39 C 67 38.449219 66.550781 38 66 38 Z M 37 42.75 L 43 42.75 L 43 47 C 42.449219 47 42 47.449219 42 48 C 42 48.550781 42.449219 49 43 49 L 43 53 C 42.449219 53 42 53.449219 42 54 C 42 54.550781 42.449219 55 43 55 L 43 59 C 42.449219 59 42 59.449219 42 60 C 42 60.550781 42.449219 61 43 61 L 43 65 C 42.449219 65 42 65.449219 42 66 C 42 66.550781 42.449219 67 43 67 L 43 71 L 37 71 L 37 67 C 37.550781 67 38 66.550781 38 66 C 38 65.449219 37.550781 65 37 65 L 37 61 C 37.550781 61 38 60.550781 38 60 C 38 59.449219 37.550781 59 37 59 L 37 55 C 37.550781 55 38 54.550781 38 54 C 38 53.449219 37.550781 53 37 53 L 37 49 C 37.550781 49 38 48.550781 38 48 C 38 47.449219 37.550781 47 37 47 Z M 40 44 C 39.449219 44 39 44.449219 39 45 C 39 45.550781 39.449219 46 40 46 C 40.550781 46 41 45.550781 41 45 C 41 44.449219 40.550781 44 40 44 Z M 66 44 C 65.449219 44 65 44.449219 65 45 C 65 45.550781 65.449219 46 66 46 C 66.550781 46 67 45.550781 67 45 C 67 44.449219 66.550781 44 66 44 Z M 40 50 C 39.449219 50 39 50.449219 39 51 C 39 51.550781 39.449219 52 40 52 C 40.550781 52 41 51.550781 41 51 C 41 50.449219 40.550781 50 40 50 Z M 66 50 C 65.449219 50 65 50.449219 65 51 C 65 51.550781 65.449219 52 66 52 C 66.550781 52 67 51.550781 67 51 C 67 50.449219 66.550781 50 66 50 Z M 24 52.75 L 30 52.75 L 30 71 L 24 71 Z M 40 56 C 39.449219 56 39 56.449219 39 57 C 39 57.550781 39.449219 58 40 58 C 40.550781 58 41 57.550781 41 57 C 41 56.449219 40.550781 56 40 56 Z M 66 56 C 65.449219 56 65 56.449219 65 57 C 65 57.550781 65.449219 58 66 58 C 66.550781 58 67 57.550781 67 57 C 67 56.449219 66.550781 56 66 56 Z M 11.96875 59.75 L 16.03125 59.75 C 16.011719 59.832031 16 59.914063 16 60 C 16 60.550781 16.449219 61 17 61 L 17 65 C 16.449219 65 16 65.449219 16 66 C 16 66.550781 16.449219 67 17 67 L 17 71 L 11 71 L 11 67 C 11.550781 67 12 66.550781 12 66 C 12 65.449219 11.550781 65 11 65 L 11 61 C 11.550781 61 12 60.550781 12 60 C 12 59.914063 11.988281 59.832031 11.96875 59.75 Z M 14 62 C 13.449219 62 13 62.449219 13 63 C 13 63.550781 13.449219 64 14 64 C 14.550781 64 15 63.550781 15 63 C 15 62.449219 14.550781 62 14 62 Z M 40 62 C 39.449219 62 39 62.449219 39 63 C 39 63.550781 39.449219 64 40 64 C 40.550781 64 41 63.550781 41 63 C 41 62.449219 40.550781 62 40 62 Z M 66 62 C 65.449219 62 65 62.449219 65 63 C 65 63.550781 65.449219 64 66 64 C 66.550781 64 67 63.550781 67 63 C 67 62.449219 66.550781 62 66 62 Z M 14 68 C 13.449219 68 13 68.449219 13 69 C 13 69.550781 13.449219 70 14 70 C 14.550781 70 15 69.550781 15 69 C 15 68.449219 14.550781 68 14 68 Z M 40 68 C 39.449219 68 39 68.449219 39 69 C 39 69.550781 39.449219 70 40 70 C 40.550781 70 41 69.550781 41 69 C 41 68.449219 40.550781 68 40 68 Z M 66 68 C 65.449219 68 65 68.449219 65 69 C 65 69.550781 65.449219 70 66 70 C 66.550781 70 67 69.550781 67 69 C 67 68.449219 66.550781 68 66 68 Z" fill="#5d14e4"/></svg>
