<?xml version="1.0" encoding="utf-8"?>
<svg xmlns="http://www.w3.org/2000/svg" viewBox="0 0 50 50" fill="#8457ff"><path d="M 18 2 C 15.25 2 13 4.25 13 7 C 13 9.75 15.25 12 18 12 C 18.402344 12 18.78125 11.933594 19.15625 11.84375 L 20 13.625 C 16.417969 15.703125 14 19.570313 14 24 C 14 25.152344 14.164063 26.257813 14.46875 27.3125 L 11.21875 28.3125 C 10.328125 26.929688 8.757813 26 7 26 C 4.25 26 2 28.25 2 31 C 2 33.75 4.25 36 7 36 C 9.75 36 12 33.75 12 31 C 12 30.722656 11.980469 30.453125 11.9375 30.1875 L 15.1875 29.1875 C 16.71875 32.359375 19.613281 34.75 23.09375 35.625 L 22.78125 38 C 20.132813 38.117188 18 40.324219 18 43 C 18 45.75 20.25 48 23 48 C 25.75 48 28 45.75 28 43 C 28 40.867188 26.636719 39.058594 24.75 38.34375 L 25.0625 35.9375 C 25.375 35.960938 25.683594 36 26 36 C 29.347656 36 32.351563 34.59375 34.53125 32.375 L 38.59375 35.6875 C 38.222656 36.382813 38 37.160156 38 38 C 38 40.75 40.25 43 43 43 C 45.75 43 48 40.75 48 38 C 48 35.25 45.75 33 43 33 C 41.796875 33 40.707031 33.441406 39.84375 34.15625 L 35.84375 30.84375 C 37.195313 28.902344 38 26.539063 38 24 C 38 21.050781 36.929688 18.34375 35.15625 16.25 L 38.25 13.1875 C 39.042969 13.714844 39.984375 14 41 14 C 43.75 14 46 11.75 46 9 C 46 6.25 43.75 4 41 4 C 38.25 4 36 6.25 36 9 C 36 10.015625 36.285156 10.957031 36.8125 11.75 L 33.75 14.84375 C 31.65625 13.070313 28.949219 12 26 12 C 24.523438 12 23.117188 12.261719 21.8125 12.75 L 20.96875 11 C 22.1875 10.085938 23 8.632813 23 7 C 23 4.25 20.75 2 18 2 Z M 18 4 C 19.667969 4 21 5.332031 21 7 C 21 8.667969 19.667969 10 18 10 C 16.332031 10 15 8.667969 15 7 C 15 5.332031 16.332031 4 18 4 Z M 41 6 C 42.667969 6 44 7.332031 44 9 C 44 10.667969 42.667969 12 41 12 C 39.332031 12 38 10.667969 38 9 C 38 7.332031 39.332031 6 41 6 Z M 26 14 C 31.535156 14 36 18.464844 36 24 C 36 29.535156 31.535156 34 26 34 C 20.464844 34 16 29.535156 16 24 C 16 18.464844 20.464844 14 26 14 Z M 25.125 17 L 25.125 18.75 C 22.445313 19.148438 22.34375 21.5625 22.34375 21.84375 C 22.34375 24.320313 24.304688 24.765625 25.875 25.125 C 27.285156 25.449219 28.09375 25.683594 28.09375 26.65625 C 28.09375 27.238281 27.820313 28.21875 26 28.21875 C 25.960938 28.21875 25 28.203125 24.40625 27.59375 C 24.054688 27.234375 23.890625 26.726563 23.90625 26.0625 L 23.9375 25.59375 L 22.09375 25.59375 L 22.09375 26.0625 C 22.152344 28.199219 23.128906 29.402344 25.09375 29.75 L 25.09375 31 L 26.875 31 L 26.875 29.78125 C 29.730469 29.351563 29.90625 27.117188 29.90625 26.65625 C 29.90625 24.265625 27.945313 23.777344 26.375 23.40625 C 24.964844 23.074219 24.15625 22.851563 24.15625 21.9375 C 24.15625 20.84375 24.761719 20.34375 26.03125 20.34375 C 27.5 20.34375 27.800781 21.328125 27.8125 22.15625 L 27.84375 22.625 L 29.59375 22.625 L 29.625 22.1875 C 29.679688 21.363281 29.363281 20.433594 28.78125 19.78125 C 28.289063 19.230469 27.625 18.875 26.875 18.75 L 26.875 17 Z M 7 28 C 8.667969 28 10 29.332031 10 31 C 10 32.667969 8.667969 34 7 34 C 5.332031 34 4 32.667969 4 31 C 4 29.332031 5.332031 28 7 28 Z M 43 35 C 44.667969 35 46 36.332031 46 38 C 46 39.667969 44.667969 41 43 41 C 41.332031 41 40 39.667969 40 38 C 40 36.332031 41.332031 35 43 35 Z M 23 40 C 24.667969 40 26 41.332031 26 43 C 26 44.667969 24.667969 46 23 46 C 21.332031 46 20 44.667969 20 43 C 20 41.332031 21.332031 40 23 40 Z" fill="#8457ff"/></svg>
