<?xml version="1.0" encoding="utf-8"?>
<svg xmlns="http://www.w3.org/2000/svg" viewBox="0 0 100 100" fill="#6700e3"><path d="M 31.486328 11.025391 C 29.986507 10.986371 28.501724 11.322327 27.166016 12.005859 C 25.808131 12.663697 24.955696 14.06161 25 15.570312 L 25 84.376953 A 1.0001 1.0001 0 0 0 25 84.384766 C 25.01238 85.874705 25.86612 87.231773 27.197266 87.898438 C 28.501481 88.642608 29.980853 89.02328 31.482422 88.996094 C 33.001486 89.037154 34.501722 88.656984 35.820312 87.902344 C 37.131589 87.252565 37.97768 85.923263 38 84.458984 A 1.0001 1.0001 0 0 0 38 84.443359 L 38 62.841797 L 43.683594 55.472656 L 63.980469 86.478516 L 63.96875 86.457031 C 64.996977 88.110414 66.840575 89.080489 68.785156 88.996094 C 70.622936 88.973464 72.386303 88.285908 73.763672 87.070312 C 75.182391 86.037561 76.071688 84.425706 76.167969 82.671875 A 1.0001 1.0001 0 0 0 76.169922 82.611328 C 76.164422 81.707115 75.884071 80.825284 75.369141 80.082031 L 52.232422 44.806641 L 71.603516 20.511719 L 71.560547 20.5625 C 72.271775 19.78197 72.662102 18.760983 72.650391 17.705078 A 1.0001 1.0001 0 0 0 72.648438 17.664062 C 72.555048 15.848472 71.657797 14.172655 70.212891 13.072266 C 68.902661 11.82716 67.188563 11.093716 65.380859 11.025391 C 63.793468 10.936481 62.274496 11.697275 61.396484 13.023438 L 61.431641 12.972656 L 38 44.015625 L 38 15.560547 C 38.04371 14.05029 37.192361 12.651236 35.832031 11.994141 C 34.48639 11.315452 32.992717 10.984174 31.486328 11.025391 z M 65.275391 13.019531 A 1.0001 1.0001 0 0 0 65.298828 13.021484 C 66.641989 13.070424 67.918174 13.61486 68.882812 14.550781 A 1.0001 1.0001 0 0 0 68.980469 14.634766 C 69.969164 15.374221 70.573894 16.512398 70.644531 17.744141 C 70.645731 18.287852 70.448563 18.812597 70.082031 19.214844 A 1.0001 1.0001 0 0 0 70.039062 19.265625 L 50.21875 44.126953 A 1.0001 1.0001 0 0 0 50.164062 45.298828 L 73.710938 81.199219 A 1.0001 1.0001 0 0 0 73.724609 81.220703 C 74.004593 81.624467 74.150959 82.102976 74.160156 82.59375 C 74.086836 83.746223 73.50855 84.805888 72.568359 85.478516 A 1.0001 1.0001 0 0 0 72.482422 85.548828 C 71.4538 86.472258 70.124445 86.987672 68.742188 87 A 1.0001 1.0001 0 0 0 68.705078 87.001953 C 67.475574 87.058113 66.315994 86.447505 65.666016 85.402344 A 1.0001 1.0001 0 0 0 65.654297 85.382812 L 44.585938 53.203125 A 1.0001 1.0001 0 0 0 42.958984 53.138672 L 36.208984 61.888672 A 1.0001 1.0001 0 0 0 36 62.5 L 36 84.429688 C 35.98899 85.151798 35.576358 85.801565 34.927734 86.119141 A 1.0001 1.0001 0 0 0 34.865234 86.152344 C 33.850011 86.742455 32.689352 87.035674 31.515625 87 A 1.0001 1.0001 0 0 0 31.464844 87 C 30.305064 87.0246 29.160749 86.73063 28.15625 86.150391 A 1.0001 1.0001 0 0 0 28.099609 86.119141 C 27.430173 85.788687 27.006204 85.115668 27 84.369141 L 27 15.541016 A 1.0001 1.0001 0 0 0 27 15.511719 C 26.97863 14.784109 27.383257 14.11863 28.039062 13.802734 A 1.0001 1.0001 0 0 0 28.0625 13.791016 C 29.110731 13.251842 30.278768 12.986946 31.457031 13.021484 A 1.0001 1.0001 0 0 0 31.517578 13.021484 C 32.705549 12.984864 33.88315 13.247968 34.943359 13.785156 A 1.0001 1.0001 0 0 0 34.960938 13.792969 C 35.616776 14.109182 36.021064 14.776123 36 15.503906 A 1.0001 1.0001 0 0 0 36 15.533203 L 36 47 A 1.0001 1.0001 0 0 0 37.798828 47.601562 L 63.027344 14.177734 A 1.0001 1.0001 0 0 0 63.064453 14.126953 C 63.553016 13.38902 64.391906 12.967622 65.275391 13.019531 z M 31.492188 18.992188 A 0.50005 0.50005 0 0 0 31 19.5 L 31 20.5 A 0.50005 0.50005 0 1 0 32 20.5 L 32 19.5 A 0.50005 0.50005 0 0 0 31.492188 18.992188 z M 31.492188 21.992188 A 0.50005 0.50005 0 0 0 31 22.5 L 31 26.5 A 0.50005 0.50005 0 1 0 32 26.5 L 32 22.5 A 0.50005 0.50005 0 0 0 31.492188 21.992188 z M 31.492188 30.992188 A 0.50005 0.50005 0 0 0 31 31.5 L 31 44.5 A 0.50005 0.50005 0 1 0 32 44.5 L 32 31.5 A 0.50005 0.50005 0 0 0 31.492188 30.992188 z" fill="#6700e3"/></svg>
