<?xml version="1.0" encoding="utf-8"?>
<svg xmlns="http://www.w3.org/2000/svg" viewBox="0 0 64 64" fill="#5d14e4"><path d="M 32 3 C 17.112 3 5 16.009 5 32 C 5 47.991 17.112 61 32 61 C 34.237 61 36.461187 60.703141 38.617188 60.119141 L 40.246094 62.224609 C 40.625094 62.713609 41.209125 63 41.828125 63 L 50.828125 63 C 51.589125 63 52.284094 62.568719 52.621094 61.886719 C 52.958094 61.204719 52.879016 60.389156 52.416016 59.785156 L 48.632812 54.84375 C 55.228812 49.30375 59 41.008 59 32 C 59 16.009 46.888 3 32 3 z M 32 5 C 45.807 5 57 17.088 57 32 C 57 40.842 53.062469 48.688281 46.980469 53.613281 C 46.356469 54.118281 46.262 55.034875 46.75 55.671875 L 50.828125 61 L 41.828125 61 L 39.992188 58.626953 C 39.703187 58.252953 39.263641 58.052734 38.806641 58.052734 C 38.662641 58.052734 38.515094 58.072281 38.371094 58.113281 C 36.337094 58.690281 34.202 59 32 59 C 18.193 59 7 46.912 7 32 C 7 17.088 18.193 5 32 5 z M 32 9 C 22.611 9 15 19.297 15 32 C 15 44.703 22.611 55 32 55 C 32.766 55 33.520766 54.930875 34.259766 54.796875 C 35.363766 54.595875 35.856922 53.282531 35.169922 52.394531 L 30.994141 47 L 40.111328 47 L 41.353516 48.621094 C 41.655516 49.015094 42.106641 49.216797 42.556641 49.216797 C 42.992641 49.216797 43.426703 49.029391 43.720703 48.650391 C 46.971703 44.462391 49 38.553 49 32 C 49 19.297 41.389 9 32 9 z M 43.865234 10.699219 C 43.612859 10.739719 43.374891 10.876609 43.212891 11.099609 C 42.888891 11.545609 42.988594 12.171094 43.433594 12.496094 C 43.447594 12.506094 44.771297 13.483625 46.279297 15.390625 C 46.477297 15.640625 46.769453 15.771484 47.064453 15.771484 C 47.281453 15.771484 47.501547 15.699734 47.685547 15.552734 C 48.119547 15.211734 48.191609 14.582437 47.849609 14.148438 C 46.155609 12.007437 44.670422 10.922953 44.607422 10.876953 C 44.383922 10.715953 44.117609 10.658719 43.865234 10.699219 z M 32 11 C 40.271 11 47 20.421 47 32 C 47 37.566 45.381969 42.948719 42.542969 46.886719 L 41.699219 45.783203 C 41.320219 45.289203 40.733328 45 40.111328 45 L 30.994141 45 C 30.231141 45 29.536219 45.434141 29.199219 46.119141 C 28.863219 46.804141 28.945109 47.620609 29.412109 48.224609 L 33.066406 52.945312 C 32.710406 52.981313 32.355 53 32 53 C 23.729 53 17 43.579 17 32 C 17 20.421 23.729 11 32 11 z M 49.033203 16.835938 C 48.904547 16.853875 48.776703 16.898 48.658203 16.96875 C 48.184203 17.25175 48.0295 17.864844 48.3125 18.339844 C 49.5135 20.349844 50.472938 22.893359 51.085938 25.693359 C 51.187937 26.161359 51.6035 26.478516 52.0625 26.478516 C 52.1325 26.478516 52.205344 26.471078 52.277344 26.455078 C 52.816344 26.337078 53.157063 25.804625 53.039062 25.265625 C 52.380062 22.256625 51.34025 19.508453 50.03125 17.314453 C 49.81825 16.958203 49.419172 16.782125 49.033203 16.835938 z M 23.40625 21.099609 C 23.016578 21.101391 22.646078 21.333094 22.486328 21.714844 C 22.273328 22.224844 22.514438 22.810437 23.023438 23.023438 L 24.869141 23.794922 C 25.378141 24.008922 25.964734 23.767813 26.177734 23.257812 C 26.390734 22.747812 26.149625 22.162219 25.640625 21.949219 L 23.794922 21.177734 C 23.667422 21.124484 23.536141 21.099016 23.40625 21.099609 z M 21.945312 26.087891 C 21.400312 25.997891 20.885875 26.367109 20.796875 26.912109 C 20.706875 27.457109 21.074141 27.971547 21.619141 28.060547 L 23.59375 28.386719 C 24.13875 28.476719 24.652187 28.1075 24.742188 27.5625 C 24.832187 27.0175 24.462969 26.501109 23.917969 26.412109 L 21.945312 26.087891 z M 21.294922 31.160156 C 20.742922 31.146156 20.283531 31.581766 20.269531 32.134766 C 20.255531 32.686766 20.691141 33.146156 21.244141 33.160156 L 23.242188 33.210938 C 23.795187 33.223938 24.253578 32.786375 24.267578 32.234375 C 24.281578 31.682375 23.845969 31.224938 23.292969 31.210938 L 21.294922 31.160156 z M 11.333984 32.126953 C 10.785984 32.126953 10.339984 32.565281 10.333984 33.113281 C 10.333984 33.189281 10.320562 34.994672 10.851562 37.638672 C 10.946562 38.113672 11.363078 38.441406 11.830078 38.441406 C 11.895078 38.441406 11.962297 38.437828 12.029297 38.423828 C 12.571297 38.314828 12.9215 37.786141 12.8125 37.244141 C 12.3255 34.822141 12.333984 33.151766 12.333984 33.134766 C 12.337984 32.582766 11.89575 32.131953 11.34375 32.126953 L 11.333984 32.126953 z M 23.59375 35.896484 L 21.619141 36.220703 C 21.074141 36.309703 20.706875 36.824141 20.796875 37.369141 C 20.885875 37.914141 21.400312 38.283359 21.945312 38.193359 L 23.917969 37.869141 C 24.462969 37.780141 24.832187 37.265703 24.742188 36.720703 C 24.652187 36.175703 24.13875 35.806484 23.59375 35.896484 z M 12.867188 40.025391 C 12.737656 40.016344 12.605109 40.032375 12.474609 40.078125 C 11.951609 40.256125 11.671609 40.824656 11.849609 41.347656 C 12.791609 44.109656 14.116109 46.622453 15.787109 48.814453 C 15.983109 49.072453 16.281984 49.207031 16.583984 49.207031 C 16.794984 49.207031 17.008453 49.142953 17.189453 49.001953 C 17.628453 48.667953 17.712906 48.038609 17.378906 47.599609 C 15.838906 45.579609 14.615187 43.259172 13.742188 40.701172 C 13.608688 40.309672 13.255781 40.052531 12.867188 40.025391 z M 25.351562 40.410156 C 25.221719 40.409641 25.090141 40.433078 24.962891 40.486328 L 23.117188 41.257812 C 22.608187 41.470812 22.367078 42.056406 22.580078 42.566406 C 22.793078 43.075406 23.378672 43.316516 23.888672 43.103516 L 25.734375 42.332031 C 26.243375 42.119031 26.484484 41.533437 26.271484 41.023438 C 26.111734 40.640938 25.741094 40.411703 25.351562 40.410156 z" fill="#5d14e4"/></svg>
