<?xml version="1.0" encoding="utf-8"?>
<svg xmlns="http://www.w3.org/2000/svg" viewBox="0 0 100 100" fill="#5d14e4"><path d="M 23 13 C 18.589 13 15 16.589 15 21 L 15 69 C 15 73.411 18.589 77 23 77 L 34 77 L 34 79 C 34 83.411 37.589 87 42 87 L 77 87 C 81.411 87 85 83.411 85 79 L 85 31 C 85 26.589 81.411 23 77 23 L 66 23 L 66 21 C 66 16.589 62.411 13 58 13 L 23 13 z M 23 15 L 58 15 C 61.309 15 64 17.691 64 21 L 64 23 L 42 23 C 37.589 23 34 26.589 34 31 L 34 71 L 23.5 71 C 22.122 71 21 69.879 21 68.5 L 21 21.5 C 21 20.121 22.122 19 23.5 19 L 25.5 19 C 25.776 19 26 18.776 26 18.5 C 26 18.224 25.776 18 25.5 18 L 23.5 18 C 21.57 18 20 19.57 20 21.5 L 20 68.5 C 20 70.43 21.57 72 23.5 72 L 34 72 L 34 75 L 23 75 C 19.691 75 17 72.309 17 69 L 17 21 C 17 17.691 19.691 15 23 15 z M 28.5 18 C 28.224 18 28 18.224 28 18.5 C 28 18.776 28.224 19 28.5 19 L 52.5 19 C 52.776 19 53 18.776 53 18.5 C 53 18.224 52.776 18 52.5 18 L 28.5 18 z M 42 25 L 77 25 C 80.309 25 83 27.691 83 31 L 83 79 C 83 82.309 80.309 85 77 85 L 42 85 C 38.691 85 36 82.309 36 79 L 36 31 C 36 27.691 38.691 25 42 25 z M 42.5 28 C 40.57 28 39 29.57 39 31.5 L 39 78.5 C 39 80.43 40.57 82 42.5 82 L 76.5 82 C 78.43 82 80 80.43 80 78.5 L 80 71.5 C 80 71.224 79.776 71 79.5 71 C 79.224 71 79 71.224 79 71.5 L 79 78.5 C 79 79.879 77.879 81 76.5 81 L 42.5 81 C 41.122 81 40 79.879 40 78.5 L 40 31.5 C 40 30.121 41.122 29 42.5 29 L 44.5 29 C 44.776 29 45 28.776 45 28.5 C 45 28.224 44.776 28 44.5 28 L 42.5 28 z M 47.5 28 C 47.224 28 47 28.224 47 28.5 C 47 28.776 47.224 29 47.5 29 L 71.5 29 C 71.776 29 72 28.776 72 28.5 C 72 28.224 71.776 28 71.5 28 L 47.5 28 z M 60.5 40 C 53.838 40 49.001 43.995 49 49.5 C 49 50.473 49.351969 51.307469 50.042969 51.980469 C 50.729969 52.656469 51.568109 53 52.537109 53 C 53.481109 53 54.303516 52.655516 54.978516 51.978516 C 55.656516 51.304516 56 50.469047 56 49.498047 C 56 48.555047 55.658375 47.729969 54.984375 47.042969 C 54.747375 46.799969 54.475922 46.601313 54.169922 46.445312 C 56.251922 44.999312 58.653 45 59.5 45 C 62.146 45 65 46.721 65 49.5 C 65 51.021 63.777281 52.293578 62.363281 53.767578 C 60.419281 55.792578 58 58.312 58 62.5 C 58 62.776 58.224 63 58.5 63 L 63.5 63 C 63.776 63 64 62.776 64 62.5 C 64 60.913 65.573703 59.359469 67.095703 57.855469 L 67.1875 57.763672 C 67.4905 57.464672 67.797516 57.160562 68.103516 56.851562 C 68.297516 56.655563 68.295609 56.338531 68.099609 56.144531 C 67.902609 55.950531 67.585578 55.952437 67.392578 56.148438 C 67.088578 56.455438 66.785375 56.755734 66.484375 57.052734 L 66.392578 57.144531 C 64.865578 58.653531 63.289156 60.207047 63.035156 61.998047 L 59.013672 61.998047 C 59.195672 58.511047 61.258891 56.362031 63.087891 54.457031 C 64.584891 52.896031 66 51.423 66 49.5 C 66 46.103 62.626 44 59.5 44 C 58.463 44 55.3085 43.999047 52.8125 46.248047 C 52.6725 46.374047 52.616062 46.568 52.664062 46.75 C 52.713062 46.932 52.859922 47.070375 53.044922 47.109375 C 53.567922 47.220375 53.956531 47.420234 54.269531 47.740234 C 54.760531 48.242234 55 48.816047 55 49.498047 C 55 50.203047 54.763437 50.784484 54.273438 51.271484 C 53.784438 51.762484 53.216109 52 52.537109 52 C 51.830109 52 51.243188 51.761578 50.742188 51.267578 C 50.242188 50.780578 50 50.200047 50 49.498047 C 50.001 44.573047 54.417 41 60.5 41 C 66.29 41 71 44.813 71 49.5 C 71 50.289 70.853734 51.048359 70.552734 51.818359 C 70.451734 52.075359 70.579891 52.365797 70.837891 52.466797 C 71.094891 52.567797 71.384375 52.438641 71.484375 52.181641 C 71.826375 51.305641 72 50.403 72 49.5 C 72 44.262 66.841 40 60.5 40 z M 69.910156 53.384766 C 69.783906 53.407641 69.667844 53.47925 69.589844 53.59375 C 69.448844 53.79675 69.300438 53.997359 69.148438 54.193359 C 68.978437 54.411359 69.018328 54.724531 69.236328 54.894531 C 69.328328 54.965531 69.436922 55 69.544922 55 C 69.692922 55 69.840453 54.934594 69.939453 54.808594 C 70.103453 54.597594 70.261109 54.381109 70.412109 54.162109 C 70.569109 53.934109 70.512156 53.622797 70.285156 53.466797 C 70.171156 53.387797 70.036406 53.361891 69.910156 53.384766 z M 79.5 60 C 79.224 60 79 60.224 79 60.5 L 79 61.5 C 79 61.776 79.224 62 79.5 62 C 79.776 62 80 61.776 80 61.5 L 80 60.5 C 80 60.224 79.776 60 79.5 60 z M 79.5 64 C 79.224 64 79 64.224 79 64.5 L 79 68.5 C 79 68.776 79.224 69 79.5 69 C 79.776 69 80 68.776 80 68.5 L 80 64.5 C 80 64.224 79.776 64 79.5 64 z M 61.03125 66 C 60.19925 66 59.478625 66.300625 58.890625 66.890625 C 58.299625 67.479625 58 68.19 58 69 C 58 69.832 58.301531 70.549906 58.894531 71.128906 C 59.481531 71.707906 60.20125 72 61.03125 72 C 61.84025 72 62.546953 71.706 63.126953 71.125 C 63.706953 70.547 64 69.831 64 69 C 64 68.19 63.707859 67.481531 63.130859 66.894531 C 62.550859 66.301531 61.84325 66 61.03125 66 z M 61.033203 67 C 61.573203 67 62.025969 67.19375 62.417969 67.59375 C 62.809969 67.99375 63 68.454 63 69 C 63 69.563 62.810922 70.026969 62.419922 70.417969 C 62.027922 70.809969 61.57225 71 61.03125 71 C 60.46525 71 59.99575 70.809062 59.59375 70.414062 C 59.19375 70.023062 59 69.561 59 69 C 59 68.458 59.194609 67.998703 59.599609 67.595703 C 59.998609 67.195703 60.468203 67 61.033203 67 z" fill="#5d14e4"/></svg>
