<?xml version="1.0" encoding="utf-8"?>
<svg xmlns="http://www.w3.org/2000/svg" viewBox="0 0 100 100" fill="#5d14e4"><path d="M 47 10 A 1.0001 1.0001 0 0 0 46 11 L 46 17.314453 C 30.995678 19.139282 19.139319 30.994775 17.314453 46 L 11 46 A 1.0001 1.0001 0 0 0 10 47 L 10 53 A 1.0001 1.0001 0 0 0 11 54 L 17.314453 54 C 19.139322 69.00436 30.99564 80.860678 46 82.685547 L 46 89 A 1.0001 1.0001 0 0 0 47 90 L 53 90 A 1.0001 1.0001 0 0 0 54 89 L 54 82.685547 C 69.00436 80.860678 80.860678 69.00436 82.685547 54 L 89 54 A 1.0001 1.0001 0 0 0 90 53 L 90 47 A 1.0001 1.0001 0 0 0 89 46 L 82.685547 46 C 80.860681 30.994775 69.004322 19.139282 54 17.314453 L 54 11 A 1.0001 1.0001 0 0 0 53 10 L 47 10 z M 48 12 L 52 12 L 52 18.144531 A 1.0001 1.0001 0 0 0 52.908203 19.140625 C 67.710256 20.517447 79.482552 32.288764 80.859375 47.091797 A 1.0001 1.0001 0 0 0 81.855469 48 L 88 48 L 88 52 L 81.855469 52 A 1.0001 1.0001 0 0 0 80.859375 52.908203 C 79.482557 67.710213 67.710213 79.482557 52.908203 80.859375 A 1.0001 1.0001 0 0 0 52 81.855469 L 52 88 L 48 88 L 48 81.855469 A 1.0001 1.0001 0 0 0 47.091797 80.859375 C 32.289787 79.482557 20.517443 67.710213 19.140625 52.908203 A 1.0001 1.0001 0 0 0 18.144531 52 L 12 52 L 12 48 L 18.144531 48 A 1.0001 1.0001 0 0 0 19.140625 47.091797 C 20.517448 32.288764 32.289744 20.517447 47.091797 19.140625 A 1.0001 1.0001 0 0 0 48 18.144531 L 48 12 z M 46.970703 23.177734 A 1.0001 1.0001 0 0 0 46.886719 23.183594 C 34.467821 24.611311 24.611351 34.467825 23.183594 46.886719 A 1.0001 1.0001 0 0 0 24.177734 48 L 36 48 L 36 52 L 24.177734 52 A 1.0001 1.0001 0 0 0 23.183594 53.113281 C 24.611351 65.532175 34.467825 75.388649 46.886719 76.816406 A 1.0001 1.0001 0 0 0 48 75.822266 L 48 64 L 52 64 L 52 75.822266 A 1.0001 1.0001 0 0 0 53.113281 76.816406 C 65.532175 75.388649 75.388649 65.532175 76.816406 53.113281 A 1.0001 1.0001 0 0 0 75.822266 52 L 64 52 L 64 48 L 75.822266 48 A 1.0001 1.0001 0 0 0 76.816406 46.886719 C 75.388649 34.467825 65.532175 24.611351 53.113281 23.183594 A 1.0001 1.0001 0 0 0 52 24.177734 L 52 36 L 48 36 L 48 24.177734 A 1.0001 1.0001 0 0 0 46.970703 23.177734 z M 46 25.398438 L 46 37 A 1.0001 1.0001 0 0 0 47 38 L 53 38 A 1.0001 1.0001 0 0 0 54 37 L 54 25.398438 C 64.583629 27.110891 72.88911 35.416371 74.601562 46 L 63 46 A 1.0001 1.0001 0 0 0 62 47 L 62 53 A 1.0001 1.0001 0 0 0 63 54 L 74.601562 54 C 72.88911 64.583629 64.583629 72.88911 54 74.601562 L 54 63 A 1.0001 1.0001 0 0 0 53 62 L 47 62 A 1.0001 1.0001 0 0 0 46 63 L 46 74.601562 C 35.416371 72.88911 27.110891 64.583629 25.398438 54 L 37 54 A 1.0001 1.0001 0 0 0 38 53 L 38 47 A 1.0001 1.0001 0 0 0 37 46 L 25.398438 46 C 27.110891 35.416371 35.416371 27.110891 46 25.398438 z M 56.503906 29.009766 A 0.50005 0.50005 0 0 0 56.453125 29.011719 A 0.50005 0.50005 0 0 0 56.349609 29.990234 C 58.46904 30.662868 60.438105 31.666027 62.208984 32.933594 A 0.50005 0.50005 0 1 0 62.791016 32.121094 C 60.937895 30.79466 58.87296 29.742476 56.650391 29.037109 A 0.50005 0.50005 0 0 0 56.503906 29.009766 z M 43.480469 29.011719 A 0.50005 0.50005 0 0 0 43.349609 29.037109 C 36.552337 31.193365 31.183713 36.550662 29.029297 43.349609 A 0.50005 0.50005 0 1 0 29.982422 43.650391 C 32.038006 37.163338 37.163663 32.047978 43.650391 29.990234 A 0.50005 0.50005 0 0 0 43.480469 29.011719 z M 65.820312 34.996094 A 0.50005 0.50005 0 0 0 65.484375 35.837891 C 67.518705 38.05787 69.086191 40.71076 70.017578 43.650391 A 0.50005 0.50005 0 1 0 70.970703 43.349609 C 69.994091 40.26724 68.350373 37.48613 66.220703 35.162109 A 0.50005 0.50005 0 0 0 65.820312 34.996094 z M 29.492188 55.994141 A 0.50005 0.50005 0 0 0 29.029297 56.650391 C 31.183726 63.449381 36.553345 68.80663 43.349609 70.962891 A 0.50005 0.50005 0 1 0 43.650391 70.009766 C 37.164655 67.952027 32.037992 62.836619 29.982422 56.349609 A 0.50005 0.50005 0 0 0 29.492188 55.994141 z M 70.492188 55.994141 A 0.50005 0.50005 0 0 0 70.017578 56.349609 C 67.961989 62.837654 62.836381 67.952008 56.349609 70.009766 A 0.50005 0.50005 0 1 0 56.650391 70.962891 C 63.447619 68.806648 68.816292 63.450346 70.970703 56.650391 A 0.50005 0.50005 0 0 0 70.492188 55.994141 z" fill="#5d14e4"/></svg>
