<?xml version="1.0" encoding="utf-8"?>
<svg xmlns="http://www.w3.org/2000/svg" viewBox="0 0 100 100" fill="#6700e3"><path d="M 50 15 C 42.538667 15 35.680659 17.427042 30 21.410156 L 30 19 A 1.0001 1.0001 0 0 0 29 18 L 24 18 A 1.0001 1.0001 0 0 0 23 19 L 23 33 A 1.0001 1.0001 0 0 0 24 34 L 38 34 A 1.0001 1.0001 0 0 0 39 33 L 39 28 A 1.0001 1.0001 0 0 0 38 27 L 35.998047 27 C 39.95538 24.581367 44.543865 23.111892 49.5 23.017578 L 49.5 25.498047 A 0.50005 0.50005 0 1 0 50.5 25.498047 L 50.5 23.011719 C 57.583079 23.140526 63.992239 25.988048 68.734375 30.558594 L 66.970703 32.322266 A 0.50005 0.50005 0 1 0 67.677734 33.029297 L 69.441406 31.265625 C 74.011952 36.007761 76.859474 42.416921 76.988281 49.5 L 74.501953 49.5 A 0.50005 0.50005 0 1 0 74.501953 50.5 L 76.988281 50.5 C 76.859474 57.583079 74.011952 63.992239 69.441406 68.734375 L 67.677734 66.970703 A 0.50005 0.50005 0 0 0 67.320312 66.820312 A 0.50005 0.50005 0 0 0 66.970703 67.677734 L 68.734375 69.441406 C 63.992239 74.011952 57.583079 76.859474 50.5 76.988281 L 50.5 74.501953 A 0.50005 0.50005 0 0 0 49.992188 73.994141 A 0.50005 0.50005 0 0 0 49.5 74.501953 L 49.5 76.988281 C 42.416921 76.859474 36.007761 74.011952 31.265625 69.441406 L 33.029297 67.677734 A 0.50005 0.50005 0 0 0 32.666016 66.820312 A 0.50005 0.50005 0 0 0 32.322266 66.970703 L 30.558594 68.734375 C 25.988048 63.992239 23.140526 57.583079 23.011719 50.5 L 25.498047 50.5 A 0.50005 0.50005 0 1 0 25.498047 49.5 L 23.011719 49.5 C 23.066591 46.578689 23.591846 43.777382 24.505859 41.150391 A 1.0001 1.0001 0 0 0 24.171875 40.027344 L 19.201172 36.207031 A 1.0001 1.0001 0 0 0 17.667969 36.617188 C 15.957511 40.739987 15 45.257596 15 50 C 15 69.31842 30.68158 85 50 85 C 69.31842 85 85 69.31842 85 50 C 85 30.68158 69.31842 15 50 15 z M 50 17 C 68.23758 17 83 31.76242 83 50 C 83 68.23758 68.23758 83 50 83 C 31.76242 83 17 68.23758 17 50 C 17 45.998376 17.816079 42.214258 19.123047 38.667969 L 22.431641 41.210938 C 21.54229 43.987206 21 46.924231 21 50 C 21 66.004438 33.995562 79 50 79 C 66.004438 79 79 66.004438 79 50 C 79 33.995562 66.004438 21 50 21 C 43.23491 21 37.005931 23.327965 32.072266 27.214844 A 1.0001 1.0001 0 0 0 32.691406 29 L 37 29 L 37 32 L 25 32 L 25 20 L 28 20 L 28 23.271484 A 1.0001 1.0001 0 0 0 29.619141 24.056641 C 35.233529 19.639302 42.29978 17 50 17 z M 50 28.998047 C 49.448 28.998047 49 29.446047 49 29.998047 L 49 46.115234 C 48.172906 46.302177 47.49117 46.71135 47.001953 47.261719 C 46.326984 48.02106 46 49.013889 46 50 C 46 50.536838 46.107482 51.072154 46.304688 51.574219 L 35.439453 62.439453 C 34.857962 63.020944 34.857962 63.979056 35.439453 64.560547 C 35.729943 64.851037 36.116396 65 36.5 65 C 36.883604 65 37.270057 64.851037 37.560547 64.560547 L 48.419922 53.701172 C 48.889876 53.885127 49.413883 54 50 54 C 51.291666 54 52.323077 53.497622 52.998047 52.738281 C 53.442354 52.238435 53.720414 51.633678 53.869141 51 L 66 51 C 66.552 51 67 50.552 67 50 C 67 49.448 66.552 49 66 49 L 53.869141 49 C 53.823217 48.804333 53.769024 48.611251 53.695312 48.423828 L 55.794922 46.324219 C 56.780174 46.565285 57.85473 46.388519 58.621094 45.621094 L 61.121094 43.121094 C 62.289217 41.954167 62.287825 40.046833 61.121094 38.878906 C 60.537521 38.295333 59.768832 38.003915 59 38.003906 C 58.231168 38.003898 57.46293 38.29548 56.878906 38.878906 L 54.378906 41.378906 C 53.612467 42.145345 53.43371 43.218652 53.673828 44.203125 L 51.578125 46.298828 C 51.393696 46.226736 51.203145 46.16115 51 46.115234 L 51 29.998047 C 51 29.446047 50.552 28.998047 50 28.998047 z M 59 38.996094 C 59.510918 38.996085 60.021635 39.193509 60.414062 39.585938 C 61.199331 40.372009 61.19994 41.628991 60.414062 42.414062 L 57.914062 44.914062 C 57.332273 45.496656 56.487068 45.64015 55.769531 45.359375 A 0.50005 0.50005 0 0 0 55.234375 45.470703 L 53.183594 47.519531 C 53.120088 47.434476 53.06928 47.341856 52.998047 47.261719 C 52.84775 47.092635 52.672863 46.941674 52.488281 46.800781 L 54.527344 44.763672 A 0.50005 0.50005 0 0 0 54.638672 44.228516 C 54.357851 43.510862 54.502847 42.669027 55.085938 42.085938 L 57.585938 39.585938 C 57.978914 39.193364 58.489082 38.996102 59 38.996094 z M 50 47 C 50.487549 47 50.898046 47.088858 51.253906 47.232422 A 0.50005 0.50005 0 0 0 51.416016 47.371094 C 51.930708 47.649027 52.349019 48.069292 52.626953 48.583984 A 0.50005 0.50005 0 0 0 52.734375 48.71875 C 52.903547 49.119553 53 49.555884 53 50 C 53 50.763889 52.74365 51.52106 52.251953 52.074219 C 51.760256 52.627378 51.041666 53 50 53 C 49.513448 53 49.103427 52.912549 48.748047 52.769531 A 0.50005 0.50005 0 0 0 48.583984 52.626953 C 48.069292 52.349019 47.650981 51.930708 47.373047 51.416016 A 0.50005 0.50005 0 0 0 47.265625 51.28125 C 47.096453 50.880447 47 50.444116 47 50 C 47 49.236111 47.25635 48.47894 47.748047 47.925781 C 48.239744 47.372622 48.958334 47 50 47 z M 46.814453 52.478516 C 46.878438 52.564342 46.930109 52.657456 47.001953 52.738281 C 47.151646 52.906686 47.326058 53.056815 47.509766 53.197266 L 36.853516 63.853516 C 36.754005 63.953026 36.628396 64 36.5 64 C 36.371604 64 36.245995 63.95303 36.146484 63.853516 C 35.945975 63.653006 35.945975 63.346994 36.146484 63.146484 L 46.814453 52.478516 z" fill="#6700e3"/></svg>
