<svg width="56" height="56" viewBox="0 0 56 56" fill="none"
     xmlns="http://www.w3.org/2000/svg">
    <path fill-rule="evenodd" clip-rule="evenodd"
          d="M52 28C52 41.2548 41.2548 52 28 52C14.7452 52 4 41.2548 4 28C4 14.7452 14.7452 4 28 4C41.2548 4 52 14.7452 52 28ZM29.75 35C29.75 35.9665 28.9665 36.75 28 36.75C27.0335 36.75 26.25 35.9665 26.25 35C26.25 34.0335 27.0335 33.25 28 33.25C28.9665 33.25 29.75 34.0335 29.75 35ZM30 19H26L27 31H29L30 19Z"
          fill="url(#paint0_linear_1997_73007)"/>
    <defs>
        <linearGradient id="paint0_linear_1997_73007" x1="4" y1="52"
                        x2="53.6262" y2="50.2553"
                        gradientUnits="userSpaceOnUse">
            <stop stop-color="#00994D"/>
            <stop offset="0.5" stop-color="#008C81"/>
            <stop offset="1" stop-color="#008099"/>
        </linearGradient>
    </defs>
</svg>
