<svg width="56" height="56" viewBox="0 0 56 56" fill="none"
     xmlns="http://www.w3.org/2000/svg">
    <g id="Icon/56x56/Bell">
        <path id="Union" fill-rule="evenodd" clip-rule="evenodd"
              d="M26 11C26 9.89543 26.8954 9 28 9C29.1046 9 30 9.89543 30
              11V14.1418C36.7846 15.1122 42 20.9471 42 28V39L43.5907
              40.193C43.6201 40.2146 43.6483 40.2377 43.6751 40.2623C43.7012
              40.2861 43.7259 40.3113 43.7491 40.3375C43.9092 40.5186 44
              40.7537 44 41C44 41.5523 43.5523 42 43 42H13C12.4477 42 12
              41.5523 12 41C12 40.7537 12.0908 40.5186 12.2509 40.3375C12.2741
              40.3113 12.2988 40.2861 12.3249 40.2623C12.3517 40.2377 12.3799
              40.2146 12.4093 40.193L14 39V28C14 20.9471 19.2154 15.1122 26
              14.1418V11ZM28 49C30.2091 49 32 47.2092 32 45L28 45L24 45C24
              47.2092 25.7909 49 28 49Z"
              fill="#ffffff"/>
    </g>
</svg>