<svg width="1em" height="1em" viewBox="0 0 24 24" fill="none"
     xmlns="http://www.w3.org/2000/svg">
    <g id="Icon/24x24/Copy">
        <path id="Union" fill-rule="evenodd" clip-rule="evenodd"
              d="M11.5 4C11.5 3.72386 11.7239 3.5 12 3.5H20C20.2761 3.5 20.5 3.72386 20.5 4V12C20.5 12.2761 20.2761 12.5 20 12.5H12C11.7239 12.5 11.5 12.2761 11.5 12V4ZM11.5 2C10.6716 2 10 2.67157 10 3.5V12.5C10 13.3284 10.6716 14 11.5 14H20.5C21.3284 14 22 13.3284 22 12.5V3.5C22 2.67157 21.3284 2 20.5 2H11.5ZM14.5 20C15.3284 20 16 19.3284 16 18.5V15H14.5V18C14.5 18.2761 14.2761 18.5 14 18.5H6C5.72386 18.5 5.5 18.2761 5.5 18L5.5 10C5.5 9.72386 5.72386 9.5 6 9.5L9 9.5V8L5.5 8C4.67157 8 4 8.67157 4 9.5V18.5C4 19.3284 4.67157 20 5.5 20L14.5 20Z"
              fill="currentColor"/>
    </g>
</svg>
