<svg width="17" height="16" viewBox="0 0 17 16" fill="none" xmlns="http://www.w3.org/2000/svg"> <path fill-rule="evenodd" clip-rule="evenodd" d="M16.334 8C16.334 12.4183 12.7523 16 8.33398 16C3.91571 16 0.333984 12.4183 0.333984 8C0.333984 3.58172 3.91571 0 8.33398 0C12.7523 0 16.334 3.58172 16.334 8ZM8.33398 6.25C8.7482 6.25 9.08398 6.58579 9.08398 7V12C9.08398 12.4142 8.7482 12.75 8.33398 12.75C7.91977 12.75 7.58398 12.4142 7.58398 12V7C7.58398 6.58579 7.91977 6.25 8.33398 6.25ZM8.33398 3C7.7817 3 7.33398 3.44772 7.33398 4C7.33398 4.55228 7.7817 5 8.33398 5C8.88627 5 9.33398 4.55228 9.33398 4C9.33398 3.44772 8.88627 3 8.33398 3Z" fill="currentColor"/> </svg>
