<svg width="56" height="56" viewBox="0 0 56 56" fill="none"
     xmlns="http://www.w3.org/2000/svg">
    <path fill-rule="evenodd" clip-rule="evenodd"
          d="M28 52C41.2548 52 52 41.2548 52 28C52 14.7452 41.2548 4 28 4C14.7452 4 4 14.7452 4 28C4 41.2548 14.7452 52 28 52ZM21.5 24C22.8807 24 24 22.8807 24 21.5C24 20.1193 22.8807 19 21.5 19C20.1192 19 19 20.1193 19 21.5C19 22.8807 20.1192 24 21.5 24ZM20.6948 39.2669C22.4907 37.2604 25.0973 36 27.9997 36C30.902 36 33.5086 37.2604 35.3045 39.2669L35.9714 40.012L37.4617 38.6782L36.7948 37.9331C34.6355 35.5206 31.4945 34 27.9997 34C24.5048 34 21.3638 35.5206 19.2045 37.9331L18.5376 38.6782L20.0279 40.012L20.6948 39.2669ZM37 21.5C37 22.8807 35.8807 24 34.5 24C33.1192 24 32 22.8807 32 21.5C32 20.1193 33.1192 19 34.5 19C35.8807 19 37 20.1193 37 21.5Z"
          fill="url(#paint0_linear_2391_26787)"/>
    <defs>
        <linearGradient id="paint0_linear_2391_26787" x1="4" y1="52"
                        x2="53.6262" y2="50.2553"
                        gradientUnits="userSpaceOnUse">
            <stop stop-color="#00994D"/>
            <stop offset="0.5" stop-color="#008C81"/>
            <stop offset="1" stop-color="#008099"/>
        </linearGradient>
    </defs>
</svg>
