<svg width="56" height="56" viewBox="0 0 56 56" fill="none"
     xmlns="http://www.w3.org/2000/svg">
    <path fill-rule="evenodd" clip-rule="evenodd"
          d="M28 52C41.2548 52 52 41.2548 52 28C52 14.7452 41.2548 4 28
          4C14.7452 4 4 14.7452 4 28C4 41.2548 14.7452 52 28 52ZM21.5
          24C22.8807 24 24 22.8807 24 21.5C24 20.1193 22.8807 19 21.5
          19C20.1193 19 19 20.1193 19 21.5C19 22.8807 20.1193 24 21.5
          24ZM35.3045 34.333C33.5087 36.3395 30.902 37.5999 27.9997
          37.5999C25.0973 37.5999 22.4907 36.3395 20.6948 34.333L20.0279
          33.5879L18.5376 34.9217L19.2046 35.6669C21.3638 38.0793 24.5048
          39.5999 27.9997 39.5999C31.4945 39.5999 34.6356 38.0793 36.7948
           35.6669L37.4617 34.9217L35.9714 33.5879L35.3045 34.333ZM37 21.5C37
           22.8807 35.8807 24 34.5 24C33.1193 24 32 22.8807 32 21.5C32 20.1193
            33.1193 19 34.5 19C35.8807 19 37 20.1193 37 21.5Z"
          fill="url(#paint0_linear_2390_26761)"/>
    <defs>
        <linearGradient id="paint0_linear_2390_26761" x1="4" y1="52"
                        x2="53.6262" y2="50.2553"
                        gradientUnits="userSpaceOnUse">
            <stop stop-color="#00994D"/>
            <stop offset="0.5" stop-color="#008C81"/>
            <stop offset="1" stop-color="#008099"/>
        </linearGradient>
    </defs>
</svg>
