<svg xmlns="http://www.w3.org/2000/svg" version="1.1" fill="none" viewBox="8379.94 11793.76 4225.86 6113.53">
    <path fill="currentColor" fill-rule="evenodd" clip-rule="evenodd" 
  d="M11910.99 15450.02l-1418.13 2453.81 -0.01 0.02 -1.99 3.44 1420.13 -2457.27zm0 0l-1418.13 2453.81 -0.01 0.02 -1.99
  3.44 1420.13 -2457.27zm0.01 0l-1418.14 -2453.81 -0.01 -0.02 -1.99 -3.44 1420.14 2457.27zm-617.72 0l-800.43 1384.99
  800.43 -1384.99zm617.72 0l-1418.14 -2453.81 -0.01 -0.02 -1.99 -3.44 1420.14 2457.27zm-617.72 0l-800.43 1384.99 800.43
  -1384.99zm0 0l-800.43 -1384.99 790.43 1384.99 10 0zm-2218.57 0l1418.14 2453.83 0.01 0.01 1.98 3.43 -1420.13 -2457.27zm0
  0l1418.14 2453.83 0.01 0.01 1.98 3.43 -1420.13 -2457.27zm-0.01 0l1418.15 -2453.83 0.01 -0.01 1.98 -3.43 -1420.14
  2457.27zm617.72 0l800.43 1384.99 -800.43 -1384.99zm-617.72 0l1418.15 -2453.83 0.01 -0.01 1.98 -3.43 -1420.14 2457.27zm617.72
  0l800.43 1384.99 -800.43 -1384.99zm0 0l800.43 -1384.99 -790.43 1384.99 -10 0zm2913.34 -0.27l-2112.91 -3655.99 2112.91
  3655.99zm0.04 0l-0.04 0 -684.76 0.27 -0.01 0 -9.95 0 694.76 -0.27zm-4225.86 0l2112.91 -3655.99 -2112.91 3655.99zm0
  0l694.76 0.27 -694.76 -0.27zm694.76 0.27l1418.16 -2453.81 1418.18 2453.81 9.96 0 684.76 -0.27 -2112.91 -3655.99 -2112.91
  3655.99 694.76 0.27zm0.01 0l2836.28 0 -2836.28 0zm1418.14 1384.99l-800.43 -1384.99 -617.71 0 1418.15 2453.81 1418.13
  -2453.81 -617.71 0 -800.43 1384.99zm-790.43 -1384.99l1580.86 0 -790.43 -1384.99 -790.43 1384.99z"/>
</svg>