<svg width="100" height="100" viewBox="0 0 100 100" fill="none" xmlns="http://www.w3.org/2000/svg">
<path d="M67.8412 14H44.1876C36.9985 14 30.7981 19.0546 29.3501 26.0963L22.4221 59.7116L22.4148 59.7188L17 86L45.8024 72.4751H62.2015C69.4245 72.4751 75.6395 67.3793 77.0584 60.299L82.7077 32.1299C84.5787 22.7483 77.4089 14 67.8412 14ZM62.2064 40.1748L60.7125 47.3228C60.5916 47.9175 60.345 48.4565 59.9994 48.9158C59.2524 49.9287 58.0462 50.5693 56.7191 50.5693H49.5976C47.0111 50.5693 45.0772 48.1882 45.6042 45.6549L47.0981 38.5068C47.2238 37.9122 47.4704 37.3731 47.8112 36.9138L47.8185 36.9066C48.5727 35.8985 49.7717 35.2604 51.0915 35.2604H58.213C60.7995 35.2604 62.7382 37.639 62.2064 40.1748Z" fill="url(#paint0_linear_623_9368)"/>
<path d="M59.9994 48.9157L45.8024 72.475L17 85.9999L22.4148 59.7187L22.4221 59.7115L47.8088 36.9113C47.468 37.3706 47.2214 37.9121 47.0957 38.5043L45.6018 45.6523C45.0748 48.1857 47.0087 50.5668 49.5952 50.5668H56.7166C58.0437 50.5692 59.2524 49.931 59.9994 48.9157Z" fill="#3888FF"/>
<defs>
<linearGradient id="paint0_linear_623_9368" x1="17" y1="50" x2="83.004" y2="50" gradientUnits="userSpaceOnUse">
<stop stop-color="#3888FF"/>
<stop offset="1" stop-color="#2DEAD7"/>
</linearGradient>
</defs>
</svg>
