<?xml version="1.0" standalone="no"?>
<!DOCTYPE svg PUBLIC "-//W3C//DTD SVG 20010904//EN"
 "http://www.w3.org/TR/2001/REC-SVG-20010904/DTD/svg10.dtd">
<svg version="1.0" xmlns="http://www.w3.org/2000/svg"
 width="700.000000pt" height="700.000000pt" viewBox="0 0 700.000000 700.000000"
 preserveAspectRatio="xMidYMid meet">
<metadata>
Created by potrace 1.14, written by Peter Selinger 2001-2017
</metadata>
<g transform="translate(0.000000,700.000000) scale(0.100000,-0.100000)"
fill="#000000" stroke="none">
<path d="M2849 6436 c-2 -2 -33 -6 -69 -10 -322 -31 -689 -231 -891 -486 -139
-176 -196 -308 -264 -612 -25 -112 -50 -221 -55 -243 -5 -22 -12 -51 -14 -65
-3 -14 -7 -34 -10 -45 -19 -81 -161 -712 -170 -760 -6 -28 -94 -422 -106 -470
-12 -52 -47 -207 -70 -315 -10 -47 -55 -247 -100 -445 -45 -198 -84 -371 -86
-385 -3 -14 -16 -74 -30 -135 -14 -60 -28 -119 -30 -130 -5 -25 -36 -166 -164
-735 -56 -250 -103 -462 -105 -470 -2 -8 -24 -109 -50 -225 -66 -293 -76 -338
-73 -340 2 -1 111 45 243 102 132 57 249 108 260 112 70 30 565 244 590 255
17 8 64 28 105 46 41 18 89 38 105 45 17 8 113 49 215 93 102 44 205 89 230
100 25 11 128 56 230 100 102 44 271 117 375 163 l190 82 785 2 c432 1 812 5
845 9 450 55 847 323 1039 700 69 136 90 205 168 576 5 25 12 56 14 70 3 14
21 94 40 179 19 85 37 168 40 185 2 17 10 49 16 71 5 22 12 51 15 65 7 39 110
516 128 595 9 39 19 79 21 90 5 26 20 99 28 132 2 10 20 95 41 188 20 94 38
177 40 185 73 335 78 369 79 490 0 72 -11 197 -18 209 -2 3 -7 22 -10 41 -35
221 -202 490 -411 666 -59 49 -71 58 -149 110 -87 58 -299 149 -394 170 -205
43 -160 42 -1398 43 -644 0 -1173 -1 -1175 -3z m1433 -1740 c107 -20 205 -93
255 -188 21 -41 27 -69 29 -126 2 -41 -1 -84 -6 -96 -4 -13 -11 -36 -13 -52
-3 -16 -26 -121 -52 -233 -26 -113 -49 -214 -51 -224 -29 -150 -106 -249 -232
-298 -55 -22 -72 -23 -422 -24 -201 -2 -390 2 -420 7 -109 19 -210 97 -257
198 -35 75 -34 150 7 320 18 74 33 144 35 155 2 11 20 92 40 180 27 115 46
175 68 214 55 92 155 157 260 168 29 3 53 6 54 7 6 5 676 -2 705 -8z"/>
</g>
</svg>
