<svg width="128" height="128" viewBox="0 0 128 128" fill="none" xmlns="http://www.w3.org/2000/svg">
<path fill-rule="evenodd" clip-rule="evenodd" d="M48 21C48 18.7909 49.7909 17 52 17H70C72.2091 17 74 18.7909 74 21V109C74 111.209 72.2091 113 70 113H52C49.7909 113 48 111.209 48 109V21ZM58 105V73H60V105H58ZM62 89V105H64V89H62ZM18 45C18 42.7909 19.7909 41 22 41H40C42.2091 41 44 42.7909 44 45V109C44 111.209 42.2091 113 40 113H22C19.7909 113 18 111.209 18 109V45ZM28 105L28 85H30L30 105H28ZM32 93L32 105H34L34 93H32ZM79.9887 42.5565C77.8548 43.1283 76.5885 45.3216 77.1603 47.4555L93.7247 109.275C94.2965 111.409 96.4898 112.675 98.6237 112.103L116.01 107.444C118.144 106.873 119.411 104.679 118.839 102.545L102.274 40.7262C101.703 38.5923 99.5092 37.326 97.3754 37.8978L79.9887 42.5565Z" fill="url(#paint0_linear_1895_72866)"/>
<defs>
<linearGradient id="paint0_linear_1895_72866" x1="18" y1="113" x2="122.383" y2="109.14" gradientUnits="userSpaceOnUse">
<stop stop-color="#00994D"/>
<stop offset="0.5" stop-color="#008C81"/>
<stop offset="1" stop-color="#008099"/>
</linearGradient>
</defs>
</svg>
