<svg width="128" height="128" viewBox="0 0 128 128" fill="none" xmlns="http://www.w3.org/2000/svg">
<path fill-rule="evenodd" clip-rule="evenodd" d="M63.6982 63.6038C72.7015 63.6038 80.0001 56.3052 80.0001 47.3019C80.0001 38.2986 72.7015 31 63.6982 31C54.6949 31 47.3963 38.2986 47.3963 47.3019C47.3963 56.3052 54.6949 63.6038 63.6982 63.6038ZM53.61 57.4367C56.1132 54.3099 59.7178 52.3778 63.6973 52.3778C67.6768 52.3778 71.2814 54.3099 73.7845 57.4367L75.3459 56.1869C72.5094 52.6435 68.3544 50.3778 63.6973 50.3778C59.0402 50.3778 54.8852 52.6435 52.0487 56.1869L53.61 57.4367ZM63.6987 45.3012C65.5952 45.3012 67.1327 43.7637 67.1327 41.8672C67.1327 39.9707 65.5952 38.4332 63.6987 38.4332C61.8022 38.4332 60.2647 39.9707 60.2647 41.8672C60.2647 43.7637 61.8022 45.3012 63.6987 45.3012ZM63.6987 47.3012C66.6998 47.3012 69.1327 44.8683 69.1327 41.8672C69.1327 38.8661 66.6998 36.4332 63.6987 36.4332C60.6976 36.4332 58.2647 38.8661 58.2647 41.8672C58.2647 44.8683 60.6976 47.3012 63.6987 47.3012ZM115.396 86.6982C115.396 93.4923 109.889 99.0001 103.094 99.0001C96.3004 99.0001 90.7926 93.4923 90.7926 86.6982C90.7926 79.904 96.3004 74.3963 103.094 74.3963C109.889 74.3963 115.396 79.904 115.396 86.6982ZM119.396 86.6982C119.396 95.7015 112.098 103 103.094 103C94.0912 103 86.7926 95.7015 86.7926 86.6982C86.7926 77.6949 94.0912 70.3963 103.094 70.3963C112.098 70.3963 119.396 77.6949 119.396 86.6982ZM40.6038 86.6982C40.6038 95.7015 33.3052 103 24.3019 103C15.2986 103 8 95.7015 8 86.6982C8 77.6949 15.2986 70.3963 24.3019 70.3963C33.3052 70.3963 40.6038 77.6949 40.6038 86.6982ZM24.3012 91.774C20.3217 91.774 16.717 93.706 14.2139 96.8329L12.6526 95.583C15.4891 92.0397 19.6441 89.774 24.3012 89.774C28.9582 89.774 33.1133 92.0397 35.9498 95.583L34.3884 96.8329C31.8853 93.706 28.2807 91.774 24.3012 91.774ZM27.7365 81.2633C27.7365 83.1599 26.1991 84.6973 24.3026 84.6973C22.406 84.6973 20.8686 83.1599 20.8686 81.2633C20.8686 79.3668 22.406 77.8294 24.3026 77.8294C26.1991 77.8294 27.7365 79.3668 27.7365 81.2633ZM29.7365 81.2633C29.7365 84.2644 27.3037 86.6973 24.3026 86.6973C21.3015 86.6973 18.8686 84.2644 18.8686 81.2633C18.8686 78.2622 21.3015 75.8294 24.3026 75.8294C27.3037 75.8294 29.7365 78.2622 29.7365 81.2633ZM63.6982 103C72.7015 103 80.0001 95.7015 80.0001 86.6982C80.0001 77.6949 72.7015 70.3963 63.6982 70.3963C54.6949 70.3963 47.3963 77.6949 47.3963 86.6982C47.3963 95.7015 54.6949 103 63.6982 103ZM53.61 96.8329C56.1132 93.706 59.7178 91.774 63.6973 91.774C67.6768 91.774 71.2814 93.706 73.7845 96.8329L75.3459 95.583C72.5094 92.0397 68.3544 89.774 63.6973 89.774C59.0402 89.774 54.8852 92.0397 52.0487 95.583L53.61 96.8329ZM63.6987 84.6973C65.5952 84.6973 67.1327 83.1599 67.1327 81.2633C67.1327 79.3668 65.5952 77.8294 63.6987 77.8294C61.8022 77.8294 60.2647 79.3668 60.2647 81.2633C60.2647 83.1599 61.8022 84.6973 63.6987 84.6973ZM63.6987 86.6973C66.6998 86.6973 69.1327 84.2644 69.1327 81.2633C69.1327 78.2622 66.6998 75.8294 63.6987 75.8294C60.6976 75.8294 58.2647 78.2622 58.2647 81.2633C58.2647 84.2644 60.6976 86.6973 63.6987 86.6973Z" fill="url(#paint0_linear_1274_51814)"/>
<defs>
<linearGradient id="paint0_linear_1274_51814" x1="-47.6982" y1="103" x2="75.884" y2="193.702" gradientUnits="userSpaceOnUse">
<stop stop-color="#00CC44"/>
<stop offset="1" stop-color="#0055FF"/>
</linearGradient>
</defs>
</svg>
