<svg width="128" height="128" viewBox="0 0 128 128" fill="none" xmlns="http://www.w3.org/2000/svg">
<path fill-rule="evenodd" clip-rule="evenodd" d="M20 28C20 23.5817 23.5817 20 28 20H100C104.418 20 108 23.5817 108 28V40H20V28ZM20 42V100C20 104.418 23.5817 108 28 108H100C104.418 108 108 104.418 108 100V42H20ZM56.4792 84.6H63.3992V88H45.0792V84.6H52.8392V65.36H45.1192V62.84C49.5592 62.72 52.3992 62.2 53.9992 59H56.4792V84.6ZM63.9573 62.4V59H84.0373V62.4C76.8773 68.2 72.4373 77.16 71.7573 88H67.3573C67.9973 77.6 72.5973 68.64 79.7973 62.4H63.9573Z" fill="url(#paint0_linear_1895_72881)"/>
<defs>
<linearGradient id="paint0_linear_1895_72881" x1="20" y1="108" x2="110.981" y2="104.801" gradientUnits="userSpaceOnUse">
<stop stop-color="#00994D"/>
<stop offset="0.5" stop-color="#008C81"/>
<stop offset="1" stop-color="#008099"/>
</linearGradient>
</defs>
</svg>
