<svg width="128" height="128" viewBox="0 0 128 128" fill="none" xmlns="http://www.w3.org/2000/svg">
<path fill-rule="evenodd" clip-rule="evenodd" d="M39 23C35.134 23 32 26.134 32 30L96 30C96 26.134 92.866 23 89 23L39 23ZM24 38.9999C24 35.1339 27.134 31.9999 31 31.9999L97 31.9999C100.866 31.9999 104 35.1339 104 38.9999L24 38.9999ZM16 96.9999C16 101.418 19.5817 105 24 105L104 105C108.418 105 112 101.418 112 96.9999V48.9999C112 44.5816 108.418 40.9999 104 40.9999L24 40.9999C19.5817 40.9999 16 44.5816 16 48.9999L16 96.9999ZM37.2929 82.2928L38 81.5857L39.4142 82.9999L38.7071 83.707L26.7071 95.707L26 96.4141L24.5858 94.9999L25.2929 94.2928L37.2929 82.2928ZM90 81.5857L90.7071 82.2928L102.707 94.2928L103.414 94.9999L102 96.4141L101.293 95.707L89.2929 83.707L88.5858 82.9999L90 81.5857ZM64.7071 89.707L64 90.4141L63.2929 89.707L27.2929 53.707L26.5858 52.9999L28 51.5857L28.7071 52.2928L64 87.5857L99.2929 52.2928L100 51.5857L101.414 52.9999L100.707 53.707L64.7071 89.707Z" fill="url(#paint0_linear_1895_72858)"/>
<defs>
<linearGradient id="paint0_linear_1895_72858" x1="16" y1="105" x2="115.207" y2="100.917" gradientUnits="userSpaceOnUse">
<stop stop-color="#00994D"/>
<stop offset="0.5" stop-color="#008C81"/>
<stop offset="1" stop-color="#008099"/>
</linearGradient>
</defs>
</svg>
