<svg width="128" height="128" viewBox="0 0 128 128" fill="none" xmlns="http://www.w3.org/2000/svg">
<path fill-rule="evenodd" clip-rule="evenodd" d="M64 61C73.9411 61 82 52.9411 82 43C82 33.0589 73.9411 25 64 25C54.0589 25 46 33.0589 46 43C46 52.9411 54.0589 61 64 61ZM68 36C68 38.2091 66.2091 40 64 40C61.7909 40 60 38.2091 60 36C60 33.7909 61.7909 32 64 32C66.2091 32 68 33.7909 68 36ZM70 36C70 39.3137 67.3137 42 64 42C60.6863 42 58 39.3137 58 36C58 32.6863 60.6863 30 64 30C67.3137 30 70 32.6863 70 36ZM63.9998 47C60.962 47 58.2133 48.2301 56.2216 50.2218C55.3023 51.1411 54.5453 52.2219 53.9967 53.4171L52.179 52.5829C52.8279 51.1692 53.7224 49.8927 54.8074 48.8076C57.1589 46.4562 60.4102 45 63.9998 45C67.5894 45 70.8409 46.4562 73.1923 48.8077C74.2773 49.8927 75.1718 51.1692 75.8206 52.5829L74.0029 53.4171C73.4543 52.2219 72.6973 51.1412 71.7781 50.2219C69.7864 48.2302 67.0377 47 63.9998 47ZM40 85C40 94.9411 31.9411 103 22 103C12.0589 103 4 94.9411 4 85C4 75.0589 12.0589 67 22 67C31.9411 67 40 75.0589 40 85ZM22 82C24.2091 82 26 80.2091 26 78C26 75.7909 24.2091 74 22 74C19.7909 74 18 75.7909 18 78C18 80.2091 19.7909 82 22 82ZM22 84C25.3137 84 28 81.3137 28 78C28 74.6863 25.3137 72 22 72C18.6863 72 16 74.6863 16 78C16 81.3137 18.6863 84 22 84ZM14.2216 92.2218C16.2133 90.2301 18.962 89 21.9998 89C25.0377 89 27.7864 90.2302 29.7781 92.2219C30.6974 93.1412 31.4543 94.2219 32.0029 95.4171L33.8206 94.5829C33.1718 93.1692 32.2773 91.8927 31.1923 90.8077C28.8408 88.4562 25.5894 87 21.9998 87C18.4102 87 15.1589 88.4562 12.8074 90.8076C11.7224 91.8927 10.8279 93.1692 10.179 94.5829L11.9967 95.4171C12.5453 94.2219 13.3023 93.1411 14.2216 92.2218ZM64 103C73.9411 103 82 94.9411 82 85C82 75.0589 73.9411 67 64 67C54.0589 67 46 75.0589 46 85C46 94.9411 54.0589 103 64 103ZM68 78C68 80.2091 66.2091 82 64 82C61.7909 82 60 80.2091 60 78C60 75.7909 61.7909 74 64 74C66.2091 74 68 75.7909 68 78ZM70 78C70 81.3137 67.3137 84 64 84C60.6863 84 58 81.3137 58 78C58 74.6863 60.6863 72 64 72C67.3137 72 70 74.6863 70 78ZM63.9998 89C60.962 89 58.2133 90.2301 56.2216 92.2218C55.3023 93.1411 54.5453 94.2219 53.9967 95.4171L52.179 94.5829C52.8279 93.1692 53.7224 91.8927 54.8074 90.8076C57.1589 88.4562 60.4102 87 63.9998 87C67.5894 87 70.8409 88.4562 73.1923 90.8077C74.2773 91.8927 75.1718 93.1692 75.8206 94.5829L74.0029 95.4171C73.4543 94.2219 72.6973 93.1412 71.7781 92.2219C69.7864 90.2302 67.0377 89 63.9998 89ZM106 103C115.941 103 124 94.9411 124 85C124 75.0589 115.941 67 106 67C96.0589 67 88 75.0589 88 85C88 94.9411 96.0589 103 106 103ZM110 78C110 80.2091 108.209 82 106 82C103.791 82 102 80.2091 102 78C102 75.7909 103.791 74 106 74C108.209 74 110 75.7909 110 78ZM112 78C112 81.3137 109.314 84 106 84C102.686 84 100 81.3137 100 78C100 74.6863 102.686 72 106 72C109.314 72 112 74.6863 112 78ZM106 89C102.962 89 100.213 90.2301 98.2216 92.2218C97.3023 93.1411 96.5453 94.2219 95.9967 95.4171L94.179 94.5829C94.8279 93.1692 95.7224 91.8927 96.8074 90.8076C99.1589 88.4562 102.41 87 106 87C109.589 87 112.841 88.4562 115.192 90.8077C116.277 91.8927 117.172 93.1692 117.821 94.5829L116.003 95.4171C115.454 94.2219 114.697 93.1412 113.778 92.2219C111.786 90.2302 109.038 89 106 89Z" fill="url(#paint0_linear_1900_72968)"/>
<defs>
<linearGradient id="paint0_linear_1900_72968" x1="4" y1="103" x2="127.856" y2="96.301" gradientUnits="userSpaceOnUse">
<stop stop-color="#00994D"/>
<stop offset="0.5" stop-color="#008C81"/>
<stop offset="1" stop-color="#008099"/>
</linearGradient>
</defs>
</svg>
