<svg width="24" height="24" viewBox="0 0 24 24" fill="none" xmlns="http://www.w3.org/2000/svg">
<g id="Icon/24x24/Leader Rating">
<path id="Union" fill-rule="evenodd" clip-rule="evenodd" d="M11.5249 1.42478C11.8214 1.26466 12.1786 1.26466 12.4751 1.42478L20.9751 6.01478C21.2985 6.18938 21.5 6.52723 21.5 6.89469V17.1052C21.5 17.4727 21.2985 17.8105 20.9751 17.9851L12.4751 22.5751C12.1786 22.7353 11.8214 22.7353 11.5249 22.5751L3.02485 17.9851C2.70153 17.8105 2.5 17.4727 2.5 17.1052V6.89469C2.5 6.52723 2.70153 6.18938 3.02485 6.01478L11.5249 1.42478ZM12.9503 0.544877C12.3572 0.224624 11.6428 0.224625 11.0497 0.544877L2.5497 5.13488C1.90305 5.48407 1.5 6.15978 1.5 6.89469V17.1052C1.5 17.8401 1.90305 18.5158 2.5497 18.865L11.0497 23.455C11.6428 23.7753 12.3572 23.7753 12.9503 23.455L21.4503 18.865C22.097 18.5158 22.5 17.8401 22.5 17.1052V6.89469C22.5 6.15978 22.0969 5.48407 21.4503 5.13488L12.9503 0.544877ZM3.5 7.60206C3.5 7.23166 3.70474 6.8916 4.03209 6.71829L11.5321 2.74748C11.8248 2.59252 12.1752 2.59252 12.4679 2.74748L19.9679 6.71829C20.2953 6.8916 20.5 7.23166 20.5 7.60206V16.3979C20.5 16.7683 20.2952 17.1084 19.9679 17.2817L12.4679 21.2521C12.1752 21.407 11.8248 21.407 11.5321 21.2521L4.03213 17.2817C3.70476 17.1084 3.5 16.7683 3.5 16.3979V7.60206ZM12.8317 14.9799H14.9077V15.9999H9.41166V14.9799H11.7397V9.20791H9.42366V8.45191C10.7557 8.41591 11.6077 8.25991 12.0877 7.29991H12.8317V14.9799Z" fill="url(#paint0_linear_1830_1541)"/>
</g>
<defs>
<linearGradient id="paint0_linear_1830_1541" x1="1.5" y1="23.6952" x2="24.7553" y2="2.81668" gradientUnits="userSpaceOnUse">
<stop stop-color="#FFAB01"/>
<stop offset="1" stop-color="#FFEA01"/>
</linearGradient>
</defs>
</svg>
