<svg width="24" height="24" viewBox="0 0 24 24" fill="none" xmlns="http://www.w3.org/2000/svg">
<path fill-rule="evenodd" clip-rule="evenodd" d="M11.5249 1.42478C11.8214 1.26466 12.1786 1.26466 12.4751 1.42478L20.9751 6.01478C21.2985 6.18938 21.5 6.52723 21.5 6.89469V17.1052C21.5 17.4727 21.2985 17.8105 20.9751 17.9851L12.4751 22.5751C12.1786 22.7353 11.8214 22.7353 11.5249 22.5751L3.02485 17.9851C2.70153 17.8105 2.5 17.4727 2.5 17.1052V6.89469C2.5 6.52723 2.70153 6.18938 3.02485 6.01478L11.5249 1.42478ZM12.9503 0.544877C12.3572 0.224624 11.6428 0.224625 11.0497 0.544877L2.5497 5.13488C1.90305 5.48407 1.5 6.15978 1.5 6.89469V17.1052C1.5 17.8401 1.90305 18.5158 2.5497 18.865L11.0497 23.455C11.6428 23.7753 12.3572 23.7753 12.9503 23.455L21.4503 18.865C22.097 18.5158 22.5 17.8401 22.5 17.1052V6.89469C22.5 6.15978 22.0969 5.48407 21.4503 5.13488L12.9503 0.544877ZM3.5 7.60206C3.5 7.23166 3.70474 6.8916 4.03209 6.71829L11.5321 2.74748C11.8248 2.59252 12.1752 2.59252 12.4679 2.74748L19.9679 6.71829C20.2953 6.8916 20.5 7.23166 20.5 7.60206V16.3979C20.5 16.7683 20.2952 17.1084 19.9679 17.2817L12.4679 21.2521C12.1752 21.407 11.8248 21.407 11.5321 21.2521L4.03213 17.2817C3.70476 17.1084 3.5 16.7683 3.5 16.3979V7.60206ZM11.4668 15.1839C12.6188 15.1839 13.6267 14.6439 13.6267 13.5639C13.6267 12.3159 12.4628 11.9079 11.0708 11.9079H10.8907V10.9119H11.0347C12.5468 10.9119 13.3988 10.4919 13.3988 9.47191C13.3988 8.53591 12.4748 8.11591 11.5507 8.11591C10.6628 8.11591 9.83475 8.41591 9.25875 8.77591V7.65991C9.72675 7.41991 10.6388 7.14391 11.6228 7.14391C13.1348 7.14391 14.5508 7.74391 14.5508 9.35191C14.5508 10.2399 13.9748 10.9959 13.0627 11.3679C14.3588 11.7879 14.7908 12.6399 14.7908 13.5519C14.7908 15.3039 13.1947 16.1559 11.5387 16.1559C10.5548 16.1559 9.64275 15.8679 9.17475 15.6039V14.4879C9.73875 14.8359 10.5788 15.1839 11.4668 15.1839Z" fill="url(#paint0_linear_1830_1716)"/>
<defs>
<linearGradient id="paint0_linear_1830_1716" x1="22.5" y1="0.304688" x2="-0.755264" y2="21.1832" gradientUnits="userSpaceOnUse">
<stop stop-color="#FFCC99"/>
<stop offset="1" stop-color="#99642E"/>
</linearGradient>
</defs>
</svg>
