<svg width="1em" height="1em" viewBox="0 0 24 24" fill="none" xmlns="http://www.w3.org/2000/svg">
<rect x="14.8999" y="7.6001" width="5" height="14" rx="0.5" transform="rotate(-15 14.8999 7.6001)" fill="#DADEE6"/>
<path d="M9 2.5C9 2.22386 9.22386 2 9.5 2H13.5C13.7761 2 14 2.22386 14 2.5V20.5C14 20.7761 13.7761 21 13.5 21H9.5C9.22386 21 9 20.7761 9 20.5V2.5Z" fill="#DADEE6"/>
<path d="M3 7.5C3 7.22386 3.22386 7 3.5 7H7.5C7.77614 7 8 7.22386 8 7.5V20.5C8 20.7761 7.77614 21 7.5 21H3.5C3.22386 21 3 20.7761 3 20.5V7.5Z" fill="#DADEE6"/>
</svg>
