<svg width="1em" height="1em" viewBox="0 0 24 24" fill="none" xmlns="http://www.w3.org/2000/svg">
<path fill-rule="evenodd" clip-rule="evenodd" d="M3 3.5C3 3.22386 3.22386 3 3.5 3H20.5C20.7761 3 21 3.22386 21 3.5V7H3V3.5ZM3 8H21V20.5C21 20.7761 20.7761 21 20.5 21H3.5C3.22386 21 3 20.7761 3 20.5V8ZM8.87484 19H9.96684V10.3H9.22284C8.75484 11.236 8.09484 11.416 6.85884 11.452V12.196H8.87484V19ZM11.2648 10.3V11.32H16.0168C13.8448 13.204 12.4768 15.868 12.2848 19H13.6048C13.8088 15.736 15.1288 13.06 17.2888 11.32V10.3H11.2648Z" fill="#DADEE6"/>
</svg>
