<svg width="32" height="32" viewBox="0 0 32 32" fill="none" xmlns="http://www.w3.org/2000/svg">
<path d="M16.0001 28.8661C15.5867 28.8661 15.1867 28.8128 14.8534 28.6928C9.76008 26.9461 1.66675 20.7461 1.66675 11.5861C1.66675 6.91948 5.44008 3.13281 10.0801 3.13281C12.3334 3.13281 14.4401 4.01281 16.0001 5.58615C17.5601 4.01281 19.6667 3.13281 21.9201 3.13281C26.5601 3.13281 30.3334 6.93281 30.3334 11.5861C30.3334 20.7595 22.2401 26.9461 17.1467 28.6928C16.8134 28.8128 16.4134 28.8661 16.0001 28.8661ZM10.0801 5.13281C6.54675 5.13281 3.66675 8.02615 3.66675 11.5861C3.66675 20.6928 12.4267 25.7595 15.5067 26.8128C15.7467 26.8928 16.2667 26.8928 16.5067 26.8128C19.5734 25.7595 28.3467 20.7061 28.3467 11.5861C28.3467 8.02615 25.4667 5.13281 21.9334 5.13281C19.9067 5.13281 18.0267 6.07948 16.8134 7.71948C16.4401 8.22615 15.5867 8.22615 15.2134 7.71948C13.9734 6.06615 12.1067 5.13281 10.0801 5.13281Z" fill="white"/>
</svg>
