<svg width="20" height="20" viewBox="0 0 35 35" fill="none" xmlns="http://www.w3.org/2000/svg">
<path d="M28.8313 20.0521H22.9396C20.0083 20.0521 18.5938 18.6958 18.5938 15.8958V5.97916C18.5938 3.17916 20.0229 1.82291 22.9396 1.82291H28.8313C31.7625 1.82291 33.1771 3.17916 33.1771 5.97916V15.8958C33.1771 18.6958 31.7479 20.0521 28.8313 20.0521ZM22.9396 4.01041C21.0875 4.01041 20.7812 4.50624 20.7812 5.97916V15.8958C20.7812 17.3687 21.0875 17.8646 22.9396 17.8646H28.8313C30.6833 17.8646 30.9896 17.3687 30.9896 15.8958V5.97916C30.9896 4.50624 30.6833 4.01041 28.8313 4.01041H22.9396V4.01041Z" fill="white"/>
<path d="M28.8313 33.1771H22.9396C20.0083 33.1771 18.5938 31.8208 18.5938 29.0208V26.3958C18.5938 23.5958 20.0229 22.2396 22.9396 22.2396H28.8313C31.7625 22.2396 33.1771 23.5958 33.1771 26.3958V29.0208C33.1771 31.8208 31.7479 33.1771 28.8313 33.1771ZM22.9396 24.4271C21.0875 24.4271 20.7812 24.9229 20.7812 26.3958V29.0208C20.7812 30.4938 21.0875 30.9896 22.9396 30.9896H28.8313C30.6833 30.9896 30.9896 30.4938 30.9896 29.0208V26.3958C30.9896 24.9229 30.6833 24.4271 28.8313 24.4271H22.9396Z" fill="white"/>
<path d="M12.0604 33.1771H6.16871C3.23746 33.1771 1.82288 31.8208 1.82288 29.0208V19.1042C1.82288 16.3042 3.25204 14.9479 6.16871 14.9479H12.0604C14.9916 14.9479 16.4062 16.3042 16.4062 19.1042V29.0208C16.4062 31.8208 14.977 33.1771 12.0604 33.1771ZM6.16871 17.1354C4.31663 17.1354 4.01038 17.6312 4.01038 19.1042V29.0208C4.01038 30.4937 4.31663 30.9896 6.16871 30.9896H12.0604C13.9125 30.9896 14.2187 30.4937 14.2187 29.0208V19.1042C14.2187 17.6312 13.9125 17.1354 12.0604 17.1354H6.16871V17.1354Z" fill="white"/>
<path d="M12.0604 12.7604H6.16871C3.23746 12.7604 1.82288 11.4042 1.82288 8.60416V5.97916C1.82288 3.17916 3.25204 1.82291 6.16871 1.82291H12.0604C14.9916 1.82291 16.4062 3.17916 16.4062 5.97916V8.60416C16.4062 11.4042 14.977 12.7604 12.0604 12.7604ZM6.16871 4.01041C4.31663 4.01041 4.01038 4.50624 4.01038 5.97916V8.60416C4.01038 10.0771 4.31663 10.5729 6.16871 10.5729H12.0604C13.9125 10.5729 14.2187 10.0771 14.2187 8.60416V5.97916C14.2187 4.50624 13.9125 4.01041 12.0604 4.01041H6.16871V4.01041Z" fill="white"/>
</svg>
