<svg width="1em" height="1em" viewBox="0 0 24 24" fill="none" xmlns="http://www.w3.org/2000/svg">
<path fill-rule="evenodd" clip-rule="evenodd" d="M11.4997 2.66662C11.8093 2.48776 12.1907 2.48776 12.5003 2.66662L20.0003 7.00015C20.3095 7.17883 20.5 7.50886 20.5 7.86601V16.1344C20.5 16.4915 20.3095 16.8216 20.0003 17.0002L12.5003 21.3336C12.1907 21.5124 11.8093 21.5124 11.4997 21.3336L3.99972 17.0002C3.69048 16.8216 3.5 16.4915 3.5 16.1344V7.86601C3.5 7.50886 3.69047 7.17883 3.9997 7.00015L11.4997 2.66662ZM13.0006 1.80076C12.3815 1.44304 11.6185 1.44304 10.9994 1.80076L3.49941 6.1343C2.88094 6.49165 2.5 7.15172 2.5 7.86601V16.1344C2.5 16.8487 2.88096 17.5088 3.49944 17.8661L10.9994 22.1994C11.6185 22.5571 12.3815 22.5571 13.0006 22.1994L20.5006 17.8661C21.119 17.5088 21.5 16.8487 21.5 16.1344V7.86601C21.5 7.15172 21.1191 6.49165 20.5006 6.1343L13.0006 1.80076ZM4.5 8.56649C4.5 8.21523 4.68429 7.88973 4.98548 7.70901L11.4855 3.8088C11.8022 3.61877 12.1978 3.61877 12.5145 3.8088L19.0145 7.70901C19.3157 7.88973 19.5 8.21523 19.5 8.56649V15.4341C19.5 15.7854 19.3157 16.1109 19.0145 16.2916L12.5145 20.1916C12.1978 20.3816 11.8022 20.3816 11.4855 20.1916L4.9855 16.2916C4.6843 16.1109 4.5 15.7854 4.5 15.4341V8.56649ZM12.843 16.0001H11.751V9.19607H9.73502V8.45207C10.971 8.41607 11.631 8.23607 12.099 7.30007H12.843V16.0001Z" fill="#DADEE6"/>
</svg>
