<svg width="1em" height="1em" viewBox="0 0 24 24" fill="none" xmlns="http://www.w3.org/2000/svg">
<path fill-rule="evenodd" clip-rule="evenodd" d="M5 3C4.44772 3 4 3.44771 4 4V21C4 21.5523 4.44772 22 5 22H19C19.5523 22 20 21.5523 20 21V4C20 3.44772 19.5523 3 19 3H5ZM8.5 16.9888C8.22386 16.9888 8 17.2126 8 17.4888C8 17.7649 8.22386 17.9888 8.5 17.9888H11.5C11.7761 17.9888 12 17.7649 12 17.4888C12 17.2126 11.7761 16.9888 11.5 16.9888H8.5ZM8 9.48877C8 9.21263 8.22386 8.98877 8.5 8.98877H11.5C11.7761 8.98877 12 9.21263 12 9.48877C12 9.76491 11.7761 9.98877 11.5 9.98877H8.5C8.22386 9.98877 8 9.76491 8 9.48877ZM8.5 14.9888C8.22386 14.9888 8 15.2126 8 15.4888C8 15.7649 8.22386 15.9888 8.5 15.9888H15.5C15.7761 15.9888 16 15.7649 16 15.4888C16 15.2126 15.7761 14.9888 15.5 14.9888H8.5ZM8 7.48877C8 7.21263 8.22386 6.98877 8.5 6.98877H15.5C15.7761 6.98877 16 7.21263 16 7.48877C16 7.76491 15.7761 7.98877 15.5 7.98877H8.5C8.22386 7.98877 8 7.76491 8 7.48877ZM8.5 13C8.22386 13 8 13.2239 8 13.5C8 13.7761 8.22386 14 8.5 14H13.5C13.7761 14 14 13.7761 14 13.5C14 13.2239 13.7761 13 13.5 13H8.5Z" fill="#DADEE6"/>
</svg>
