<svg width="35" height="35" viewBox="0 0 35 35" fill="none" xmlns="http://www.w3.org/2000/svg">
<path d="M17.5 15.3417C16.9021 15.3417 16.4062 14.8458 16.4062 14.2479V9.39166C16.4062 8.79375 16.9021 8.29791 17.5 8.29791C18.0979 8.29791 18.5938 8.79375 18.5938 9.39166V14.2479C18.5938 14.8604 18.0979 15.3417 17.5 15.3417Z" fill="white"/>
<path d="M17.5291 29.6771C13.7666 29.6771 10.0187 29.0792 6.4458 27.8833C5.11872 27.4458 4.11247 26.4979 3.67497 25.3021C3.23747 24.1063 3.3833 22.7354 4.09789 21.5396L5.94997 18.4479C6.3583 17.7625 6.72289 16.4792 6.72289 15.6771V12.6146C6.72289 6.65 11.5646 1.80833 17.5291 1.80833C23.4937 1.80833 28.3354 6.65 28.3354 12.6146V15.6771C28.3354 16.4646 28.7 17.7625 29.1083 18.4479L30.9604 21.5396C31.6458 22.6771 31.7625 24.0333 31.3104 25.2729C30.8583 26.5125 29.8666 27.4604 28.6125 27.8833C25.0396 29.0938 21.2916 29.6771 17.5291 29.6771ZM17.5291 4.01042C12.775 4.01042 8.91039 7.875 8.91039 12.6292V15.6917C8.91039 16.8729 8.44372 18.5792 7.83122 19.5854L5.97914 22.6917C5.59997 23.3188 5.51247 23.9896 5.73122 24.5729C5.94997 25.1563 6.4458 25.5938 7.1458 25.8271C13.8541 28.0583 21.2333 28.0583 27.9416 25.8271C28.5687 25.6229 29.05 25.1563 29.2687 24.5438C29.5021 23.9313 29.4291 23.2604 29.0937 22.6917L27.2416 19.6C26.6291 18.5938 26.1625 16.8875 26.1625 15.7063V12.6438C26.1479 7.875 22.2833 4.01042 17.5291 4.01042Z" fill="white"/>
<path d="M17.5 33.3958C15.9396 33.3958 14.4084 32.7542 13.3 31.6458C12.1917 30.5375 11.55 29.0062 11.55 27.4458H13.7375C13.7375 28.4375 14.1459 29.4 14.8459 30.1C15.5459 30.8 16.5084 31.2083 17.5 31.2083C19.5709 31.2083 21.2625 29.5167 21.2625 27.4458H23.45C23.45 30.7271 20.7813 33.3958 17.5 33.3958Z" fill="white"/>
</svg>
