<svg width="1em" height="1em" viewBox="0 0 24 24" fill="none" xmlns="http://www.w3.org/2000/svg">
<path fill-rule="evenodd" clip-rule="evenodd" d="M12 3C7.58172 3 4 6.58172 4 11V17.8947L2.77024 18.8009C2.60031 18.9261 2.5 19.1246 2.5 19.3357C2.5 19.7026 2.79742 20 3.16432 20H20.8357C21.2026 20 21.5 19.7026 21.5 19.3357C21.5 19.1246 21.3997 18.9261 21.2298 18.8009L20 17.8947V11C20 6.58172 16.4183 3 12 3ZM12 23C13.1046 23 14 22.1046 14 21L12 21L10 21C10 22.1046 10.8954 23 12 23Z" fill="#DADEE6"/>
</svg>
