<svg width="24" height="24" viewBox="0 0 24 24" fill="none"
     xmlns="http://www.w3.org/2000/svg">
    <path fill-rule="evenodd" clip-rule="evenodd"
          d="M3 22L6.35689 5.21554C6.73083 3.34584 8.37249 2 10.2792
          2H17.1803C19.6848 2 21.5733 4.2755 21.1118 6.73715L19.6118
          14.7372C19.2571 16.629 17.6052 18 15.6803 18H11L3 22ZM12.2808
          8C11.8219 8 11.4219 8.3123 11.3106 8.75746L10.8106 10.7575C10.6528
          11.3886 11.1302 12 11.7808 12H14.2192C14.6781 12 15.0781 11.6877
          15.1894 11.2425L15.6894 9.24254C15.8472 8.61139 15.3698 8 14.7192
          8H12.2808Z" fill="#E6EBF2"/>
</svg>
