<svg width="24" height="24" viewBox="0 0 24 24" fill="none"
     xmlns="http://www.w3.org/2000/svg">
    <path fill-rule="evenodd" clip-rule="evenodd"
          d="M6 4C6 3.44772 6.44772 3 7 3H17C17.5523 3 18 3.44772 18 4V20C18
          20.5523 17.5523 21 17 21H7C6.44771 21 6 20.5523 6 20V4ZM8
          14.9888H12V15.9888H8V14.9888ZM12 9.98877H8V10.9888H12V9.98877ZM8
          12.9888H16V13.9888H8V12.9888ZM16 7.98877H8V8.98877H16V7.98877ZM2
          7C2 6.44772 2.44772 6 3 6H5V18H3C2.44772 18 2 17.5523 2 17V7ZM21
          6H19V18H21C21.5523 18 22 17.5523 22 17V7C22 6.44772 21.5523 6 21 6Z"
          fill="#E6EBF2"/>
</svg>
