<svg width="35" height="35" viewBox="0 0 35 35" fill="none" xmlns="http://www.w3.org/2000/svg">
<path d="M17.5 32.8125C16.9166 32.8125 16.3333 32.6813 15.8666 32.4188L8.1083 27.9854C6.94163 27.3146 6.25622 25.8125 6.51872 24.4854L9.01245 11.9875C9.11454 11.5063 9.39164 10.9083 9.71247 10.5292L14.9625 4.22918C16.2604 2.66876 18.7104 2.66876 20.0083 4.22918L25.2583 10.5292C25.5791 10.9083 25.8562 11.5063 25.9583 11.9875L28.4521 24.4854C28.7146 25.8125 28.0292 27.3146 26.8625 27.9708L19.1041 32.4042C18.6666 32.6813 18.0833 32.8125 17.5 32.8125ZM17.5 5.19168C17.1937 5.19168 16.9021 5.3521 16.6542 5.62918L11.4041 11.9292C11.3312 12.0167 11.2 12.2938 11.1708 12.4104L8.67707 24.9083C8.60415 25.3021 8.86663 25.8708 9.20205 26.075L16.9604 30.5083C17.2229 30.6542 17.7916 30.6542 18.0395 30.5083L25.7979 26.075C26.1479 25.8708 26.4104 25.3021 26.3229 24.9083L23.8291 12.4104C23.8 12.2938 23.6687 12.0167 23.5958 11.9292L18.3458 5.62918C18.0979 5.3521 17.8062 5.19168 17.5 5.19168Z" fill="white"/>
<path d="M17.5 31.7333C16.7125 31.7333 16.0417 31.2521 15.7792 30.5229L9.43546 12.7604C9.2313 12.1917 9.52298 11.5646 10.0917 11.3604C10.6605 11.1563 11.2876 11.4479 11.4917 12.0167L17.5 28.8313L23.4938 12.0604C23.6979 11.4917 24.3251 11.2 24.8938 11.4042C25.4626 11.6083 25.7542 12.2354 25.55 12.8042L19.2209 30.5375C18.9584 31.2667 18.2875 31.7333 17.5 31.7333Z" fill="white"/>
</svg>
