<svg width="40" height="35" viewBox="0 0 40 35" fill="none" xmlns="http://www.w3.org/2000/svg">
<path d="M17.5 18.5938C12.8771 18.5938 9.11462 14.8313 9.11462 10.2083C9.11462 5.58542 12.8771 1.82292 17.5 1.82292C22.123 1.82292 25.8855 5.58542 25.8855 10.2083C25.8855 14.8313 22.123 18.5938 17.5 18.5938ZM17.5 4.01042C14.0875 4.01042 11.3021 6.79584 11.3021 10.2083C11.3021 13.6208 14.0875 16.4063 17.5 16.4063C20.9125 16.4063 23.698 13.6208 23.698 10.2083C23.698 6.79584 20.9125 4.01042 17.5 4.01042Z" fill="white"/>
<path d="M30.0273 33.1771C29.4294 33.1771 28.9335 32.6812 28.9335 32.0833C28.9335 27.0521 23.8002 22.9687 17.5002 22.9687C11.2002 22.9687 6.06689 27.0521 6.06689 32.0833C6.06689 32.6812 5.57106 33.1771 4.97314 33.1771C4.37523 33.1771 3.87939 32.6812 3.87939 32.0833C3.87939 25.8562 9.98981 20.7812 17.5002 20.7812C25.0106 20.7812 31.121 25.8562 31.121 32.0833C31.121 32.6812 30.6252 33.1771 30.0273 33.1771Z" fill="white"/>
<path d="M36 13C36 9.14087 32.7929 6 28.8524 6C28.5683 6 28 6.16696 28 6.83478C28 7.50261 28.606 7.82609 28.8524 7.82609C31.7612 7.82609 34.1354 10.1513 34.1354 13C34.1354 15.8487 31.7612 18.1739 28.8524 18.1739C28.5683 18.1739 28 18.3868 28 18.9391C28 19.7739 28.7125 20 28.8524 20C32.7929 20 36 16.8591 36 13Z" fill="white"/>
<path d="M38.2046 31.1176C38.2046 31.6 38.6116 32 39.1023 32C39.5931 32 40 31.6 40 31.1176C40 26.0941 34.985 22 28.8209 22C28.5473 22.0112 28 22.195 28 22.8404C28 23.4857 28.5473 23.7255 28.8209 23.7647C33.9916 23.7647 38.2046 27.0588 38.2046 31.1176Z" fill="white"/>
</svg>
