<svg width="1em" height="1em" viewBox="0 0 26 26" fill="none" xmlns="http://www.w3.org/2000/svg">
<path fill-rule="evenodd" clip-rule="evenodd" d="M15.398 16.8034C13.9383 18.7446 11.6158 20 9 20C6.38446 20 4.06209 18.7448 2.60238 16.8039C4.35859 15.4069 6.5821 14.5723 9.00056 14.5723C11.4187 14.5723 13.6419 15.4067 15.398 16.8034ZM1.84893 17.4654C1.74082 17.3242 1.63681 17.1796 1.53706 17.032C0.56664 15.5956 0 13.864 0 12C0 7.02944 4.02944 3 9 3C13.9706 3 18 7.02944 18 12C18 14.0553 17.3111 15.9496 16.1515 17.4648C14.5068 19.6139 11.9153 21 9 21C6.08499 21 3.49367 19.6142 1.84893 17.4654ZM12.4286 9.42857C12.4286 11.3221 10.8935 12.8571 8.99999 12.8571C7.10644 12.8571 5.57142 11.3221 5.57142 9.42857C5.57142 7.53502 7.10644 6 8.99999 6C10.8935 6 12.4286 7.53502 12.4286 9.42857Z" fill="#DADEE6"/>
<path fill-rule="evenodd" clip-rule="evenodd" d="M13.5848 20.8895C16.8014 19.2272 19.0001 15.8704 19.0001 12C19.0001 8.12964 16.8014 4.77283 13.5848 3.11055C14.0457 3.03778 14.5182 3 14.9995 3C19.9701 3 23.9995 7.02944 23.9995 12C23.9995 16.9706 19.9701 21 14.9995 21C14.5182 21 14.0457 20.9622 13.5848 20.8895ZM6.00083 11.8446C5.99995 11.8963 5.99951 11.9481 5.99951 12C5.99951 12.0519 5.99995 12.1037 6.00083 12.1554C6.0003 12.1037 6.00004 12.0519 6.00004 12C6.00004 11.9481 6.0003 11.8963 6.00083 11.8446Z" fill="#DADEE5"/>
</svg>
