<svg width="35" height="35" viewBox="0 0 35 35" fill="none" xmlns="http://www.w3.org/2000/svg">
<path d="M17.7188 28.2187C17.1208 28.2187 16.625 27.7229 16.625 27.125V24.0625C16.625 23.4646 17.1208 22.9688 17.7188 22.9688C18.3167 22.9688 18.8125 23.4646 18.8125 24.0625V27.125C18.8125 27.7229 18.3167 28.2187 17.7188 28.2187Z" fill="white"/>
<path d="M26.1042 33.1771H9.33337V30.625C9.33337 28.4083 11.1271 26.6146 13.3438 26.6146H22.0938C24.3105 26.6146 26.1042 28.4083 26.1042 30.625V33.1771ZM11.5209 30.9896H23.9167V30.625C23.9167 29.6188 23.1 28.8021 22.0938 28.8021H13.3438C12.3375 28.8021 11.5209 29.6188 11.5209 30.625V30.9896V30.9896Z" fill="white"/>
<path d="M26.4688 33.1771H8.96875C8.37083 33.1771 7.875 32.6813 7.875 32.0833C7.875 31.4854 8.37083 30.9896 8.96875 30.9896H26.4688C27.0667 30.9896 27.5625 31.4854 27.5625 32.0833C27.5625 32.6813 27.0667 33.1771 26.4688 33.1771Z" fill="white"/>
<path d="M26.877 18.1417C26.5708 18.1417 26.2645 18.0104 26.0458 17.7625C25.7687 17.4417 25.6958 16.9896 25.8708 16.6104C26.3666 15.4729 26.6145 14.2625 26.6145 12.9938V8.61876C26.6145 8.10835 26.527 7.61251 26.352 7.08751C26.3375 7.04376 26.3229 6.98543 26.3083 6.9271C26.2645 6.70835 26.25 6.4896 26.25 6.28543C26.25 5.68751 26.7458 5.19168 27.3437 5.19168H28.2187C30.8291 5.19168 32.9583 7.37918 32.9583 10.0771C32.9583 12.3083 32.0395 14.5104 30.45 16.1C30.4208 16.1292 30.3333 16.2021 30.3187 16.2167C29.4583 16.9313 28.4812 17.7333 27.1687 18.0979C27.0666 18.1271 26.9791 18.1417 26.877 18.1417ZM28.7 7.42293C28.7729 7.81668 28.802 8.22501 28.802 8.61876V12.9938C28.802 13.5917 28.7583 14.1604 28.6708 14.7438C28.7583 14.6708 28.8312 14.6125 28.9187 14.5396C30.0854 13.3729 30.7708 11.7396 30.7708 10.0771C30.7708 8.7646 29.8812 7.65626 28.7 7.42293Z" fill="white"/>
<path d="M8.13746 18.0833C8.02079 18.0833 7.91871 18.0688 7.80204 18.025C6.60621 17.6458 5.48329 16.9458 4.54996 16.0125C2.87288 14.1604 2.04163 12.1333 2.04163 9.98958C2.04163 7.33542 4.12704 5.25 6.78121 5.25H7.72913C8.09371 5.25 8.44371 5.43958 8.64788 5.74583C8.85204 6.05208 8.88121 6.44583 8.73538 6.78125C8.50204 7.30625 8.38538 7.90417 8.38538 8.53125V12.9063C8.38538 14.1604 8.63329 15.3854 9.14371 16.5521C9.31871 16.9458 9.23121 17.3979 8.95413 17.7187C8.73538 17.9521 8.44371 18.0833 8.13746 18.0833ZM6.27079 7.48125C5.08954 7.71458 4.22913 8.73542 4.22913 9.98958C4.22913 11.5792 4.87079 13.1104 6.13954 14.5104C6.19788 14.5833 6.27079 14.6417 6.34371 14.7C6.24163 14.1021 6.19788 13.5042 6.19788 12.9063V8.53125C6.19788 8.18125 6.22704 7.83125 6.27079 7.48125Z" fill="white"/>
<path d="M17.5 24.4271C11.2729 24.4271 6.19788 19.3521 6.19788 13.125V8.74999C6.19788 4.92916 9.30413 1.82291 13.125 1.82291H21.875C25.6958 1.82291 28.802 4.92916 28.802 8.74999V13.125C28.802 19.3521 23.727 24.4271 17.5 24.4271ZM13.125 4.01041C10.5145 4.01041 8.38538 6.13957 8.38538 8.74999V13.125C8.38538 18.1562 12.4687 22.2396 17.5 22.2396C22.5312 22.2396 26.6145 18.1562 26.6145 13.125V8.74999C26.6145 6.13957 24.4854 4.01041 21.875 4.01041H13.125Z" fill="white"/>
</svg>
