<svg width="1em" height="1em" viewBox="0 0 24 24" fill="none" xmlns="http://www.w3.org/2000/svg">
<path fill-rule="evenodd" clip-rule="evenodd" d="M17 2.1629V6.00004H3.28501C3.12761 6.00004 3 5.87243 3 5.71502C3 5.58777 3.08436 5.47593 3.20671 5.44098L16.3626 1.68214C16.682 1.59088 17 1.83071 17 2.1629ZM21 7.50009C21 7.22395 20.7761 7.00009 20.5 7.00009H3.5C3.22386 7.00009 3 7.22395 3 7.50009V19.5001C3 19.7762 3.22386 20.0001 3.5 20.0001H20.5C20.7761 20.0001 21 19.7762 21 19.5001V7.50009ZM18.75 13.5001C18.75 14.1905 18.1904 14.7501 17.5 14.7501C16.8096 14.7501 16.25 14.1905 16.25 13.5001C16.25 12.8097 16.8096 12.2501 17.5 12.2501C18.1904 12.2501 18.75 12.8097 18.75 13.5001Z" fill="#DADEE6"/>
</svg>
