<svg width="35" height="35" viewBox="0 0 35 35" fill="none" xmlns="http://www.w3.org/2000/svg">
<path d="M25.8709 33.1771H9.12921C5.49796 33.1771 2.55212 30.2312 2.55212 26.6V16.7854C2.55212 13.1542 5.49796 10.2083 9.12921 10.2083H25.8709C29.5021 10.2083 32.448 13.1542 32.448 16.7854V18.8854C32.448 19.4833 31.9521 19.9792 31.3542 19.9792H28.4084C27.898 19.9792 27.4313 20.1688 27.0959 20.5188L27.0813 20.5334C26.673 20.9271 26.4834 21.4666 26.5271 22.0208C26.6146 22.9833 27.5334 23.7562 28.5834 23.7562H31.3542C31.9521 23.7562 32.448 24.252 32.448 24.85V26.5854C32.448 30.2312 29.5021 33.1771 25.8709 33.1771ZM9.12921 12.3958C6.70837 12.3958 4.73962 14.3646 4.73962 16.7854V26.6C4.73962 29.0208 6.70837 30.9896 9.12921 30.9896H25.8709C28.2917 30.9896 30.2605 29.0208 30.2605 26.6V25.9583H28.5834C26.3813 25.9583 24.5146 24.325 24.3396 22.225C24.223 21.0291 24.6605 19.8479 25.5355 18.9875C26.2938 18.2146 27.3146 17.7917 28.4084 17.7917H30.2605V16.7854C30.2605 14.3646 28.2917 12.3958 25.8709 12.3958H9.12921V12.3958Z" fill="white"/>
<path d="M3.64587 19.1917C3.04796 19.1917 2.55212 18.6958 2.55212 18.0979V11.4334C2.55212 9.2605 3.92296 7.29166 5.95004 6.51875L17.5292 2.14375C18.725 1.69166 20.0521 1.85215 21.0875 2.58132C22.1375 3.31049 22.75 4.49172 22.75 5.76047V11.3021C22.75 11.9 22.2542 12.3959 21.6563 12.3959C21.0584 12.3959 20.5625 11.9 20.5625 11.3021V5.76047C20.5625 5.20631 20.3 4.69587 19.8334 4.37504C19.3667 4.05421 18.8125 3.98128 18.2875 4.18545L6.70837 8.56045C5.52712 9.01253 4.72504 10.1647 4.72504 11.4334V18.0979C4.73962 18.7104 4.24379 19.1917 3.64587 19.1917Z" fill="white"/>
<path d="M28.5834 25.9582C26.3813 25.9582 24.5146 24.3249 24.3396 22.2249C24.2229 21.0145 24.6604 19.8333 25.5354 18.9728C26.2792 18.2145 27.3 17.7916 28.3938 17.7916H31.4271C32.8709 17.8353 33.9792 18.9728 33.9792 20.3728V23.377C33.9792 24.777 32.8709 25.9145 31.4709 25.9582H28.5834ZM31.3979 19.9791H28.4084C27.8979 19.9791 27.4313 20.1687 27.0959 20.5187C26.6729 20.927 26.4688 21.4811 26.5271 22.0353C26.6146 22.9978 27.5334 23.7707 28.5834 23.7707H31.4417C31.6313 23.7707 31.8063 23.5958 31.8063 23.377V20.3728C31.8063 20.154 31.6313 19.9937 31.3979 19.9791Z" fill="white"/>
<path d="M20.4167 18.5938H10.2084C9.61046 18.5938 9.11462 18.0979 9.11462 17.5C9.11462 16.9021 9.61046 16.4062 10.2084 16.4062H20.4167C21.0146 16.4062 21.5105 16.9021 21.5105 17.5C21.5105 18.0979 21.0146 18.5938 20.4167 18.5938Z" fill="white"/>
</svg>
